<svg id="Layer_1" data-name="Layer 1" xmlns="http://www.w3.org/2000/svg" viewBox="0 0 311.11 116.96"><defs><style>.cls-1,.cls-2{fill:#fff;}.cls-1{stroke:#000;stroke-miterlimit:10;stroke-width:0.5px;}</style></defs><title>holy fuck i think i got it thin</title><polygon class="cls-1" points="209.44 94.43 209.2 96.83 208.89 97.94 208.4 98.9 207.75 99.72 206.91 100.36 205.88 100.78 204.63 100.92 203.41 100.79 202.4 100.38 201.57 99.74 200.92 98.93 200.44 97.96 200.12 96.86 199.89 94.43 199.89 84.26 196.08 84.26 196.08 94.43 196.19 96.34 196.53 98.17 197.13 99.86 198.01 101.33 199.19 102.56 200.67 103.53 202.49 104.15 204.66 104.35 206.77 104.16 208.56 103.57 210.04 102.64 211.22 101.43 212.12 99.97 212.74 98.28 213.1 96.42 213.22 94.43 213.22 84.26 209.44 84.26 209.44 94.43"/><polygon class="cls-1" points="239.23 95.61 247.48 95.61 247.48 92.46 239.23 92.46 239.23 87.66 248.78 87.66 248.78 84.26 235.42 84.26 235.42 104.21 249.03 104.21 249.03 100.81 239.23 100.81 239.23 95.61"/><path class="cls-1" d="M243.74,107.68l1.12-1.37.71-1.68.24-1.85-.12-1.2-.35-1.2-.56-1.13-.74-1-.9-.85-1.07-.67-1.2-.43-1.3-.14H230.9v20h3.81v-6.69h3.76l4,6.69h4.28l-4.47-7.51Zm-2-3.63-.52,1-.79.69-1,.26h-4.78V99.55h4.61l1,.24.86.67.59,1,.22,1.29Z" transform="translate(-13.84 -11.89)"/><polygon class="cls-1" points="124.31 94.43 124.08 96.83 123.76 97.94 123.28 98.9 122.62 99.72 121.79 100.36 120.75 100.78 119.51 100.92 118.29 100.79 117.27 100.38 116.45 99.74 115.8 98.93 115.31 97.96 115 96.86 114.76 94.43 114.76 84.26 110.95 84.26 110.95 94.43 111.06 96.34 111.41 98.17 112 99.86 112.88 101.33 114.06 102.56 115.55 103.53 117.37 104.15 119.54 104.35 121.64 104.16 123.43 103.57 124.91 102.64 126.09 101.43 126.99 99.97 127.61 98.28 127.97 96.42 128.09 94.43 128.09 84.26 124.31 84.26 124.31 94.43"/><polygon class="cls-1" points="95.38 104.21 99.19 104.21 99.19 95.95 106.97 95.95 106.97 92.8 99.19 92.8 99.19 87.66 108.54 87.66 108.54 84.26 95.38 84.26 95.38 104.21"/><path class="cls-1" d="M158.61,107.68l1.12-1.37.72-1.68.23-1.85-.11-1.2-.35-1.2-.56-1.13-.74-1-.91-.85L157,96.72l-1.2-.43-1.3-.14h-8.67v20h3.81v-6.69h3.75l4,6.69h4.27l-4.47-7.51Zm-2-3.63-.53,1-.79.69-1,.26h-4.77V99.55h4.61l1,.24.85.67.6,1,.22,1.29Z" transform="translate(-13.84 -11.89)"/><polygon class="cls-1" points="163.46 97.36 153.25 84.26 150.29 84.26 150.29 104.21 154.1 104.21 154.1 91.42 164.18 104.21 167.27 104.21 167.27 84.28 163.46 84.28 163.46 97.36"/><polygon class="cls-1" points="177.6 87.66 183.87 87.66 183.87 104.21 187.65 104.21 187.65 87.66 193.92 87.66 193.92 84.26 177.6 84.26 177.6 87.66"/><rect class="cls-1" x="171.36" y="84.26" width="3.81" height="19.96"/><path class="cls-2" d="M74.78,94.52,74,94.18l-.76-.48-.66-.59-.55-.7-.43-.78-.29-.85-.14-.88V89l.16-.88.3-.84.44-.77.66-.91.71-.9.75-.86L75,83l.83-.79.87-.74.9-.7.93-.66,1-.61,1-.57,1-.52,1-.47,1.13-.47,1.13-.43.45-.23a.34.34,0,0,0,.12-.12l2.1-4.48L88.7,70a.26.26,0,0,0-.09-.34.28.28,0,0,0-.13,0,.25.25,0,0,0-.21.1l-1.9,2.8L84,74.81l-2.3,1.57L80,77l-1.93-.08-1.35-.58-.52-.63a.31.31,0,0,0-.18-.09h0a.28.28,0,0,0-.17.07l-.81.75-2.63,1.5-2.34.63L68,78.33l-1.83-1L64.88,76l-.53-1.47.19-1.92L65.42,70l2.42-5.37,2.54-5.12a.25.25,0,0,0-.11-.33l-.2-.1-.53-.5L69,57.76,70,56l2.58-2.69,1.39-1L75,52l.89.12.89.58.64.77.2.62-1.25,3.37-.58,1.27-.57,1.54-4,8.81-.86,1.7-.31.69-.39,1.78a.24.24,0,0,0,.06.23l.24.25a.3.3,0,0,0,.17.08l.66,0a.23.23,0,0,0,.11,0l2-.94,2.46-2.18.28-.38L77,65.42l1.38-2.83L80.14,60l4.43-4.44L87,53.8l2.42-1.4,2.31-.94L93.79,51l1.48.12,1.26.73a.19.19,0,0,0,.12,0,.22.22,0,0,0,.19-.09l.79-.93L99,50.43l1.27-.14.86.19.45.69.22.55,0,.24-.14.49-.31.4-.15.15-5.07,9.27-2.81,5.54-2.05,4.91a.26.26,0,0,0,.07.29.27.27,0,0,0,.16.06.24.24,0,0,0,.14,0l.87-.57,1.82-1.34,1.78-1.41,1.72-1.48,1.65-1.55,1.07-1.07a.24.24,0,0,0,.06-.09l3.6-9.67,6.07-14,5.12-10,.19-.24.15-.15.18-.12.19-.11.21-.08.21-.05.22,0H117l.22,0,.21.06.42,0h.73l.73,0,.73-.06.72-.09.26-.11h.15l.1,0,.18.07.1.09.08.11,0,.14v.14l0,.14-.09.17-.2.17-.48.52-.46.54-.44.56-.41.57-.39.6-.37.6-.34.63-1.66,3.2-6.24,12.38-4.4,9.61a.24.24,0,0,0,.11.32.16.16,0,0,0,.12,0,.26.26,0,0,0,.21-.11l2.92-4.56,3.26-3.34,2.24-1.79,1.53-.63,2.45.23.86.64.39,1.29-1.37,4.23-3.11,8-1,3.23a.28.28,0,0,0,0,.2l.43.75a.26.26,0,0,0,.22.13.2.2,0,0,0,.11,0l1.46-.75,2.15-2.1L121.78,64a.25.25,0,0,0,.06-.16l0-1.51,1.47-7.11,2.34-7.13L128.48,42l3.25-5.55,2.94-4L137.29,30l2.19-.91,1.33.1,1.13.55.88,1,.4,1.47L143,34.29l-1,3.07-3.35,7.28-4.52,7.89-7.67,11.83a.36.36,0,0,0,0,.11l-.11,1.11,0,1.69a.31.31,0,0,0,0,.13l.73,1.28a.24.24,0,0,0,.16.12l1.66.42h.06a.2.2,0,0,0,.11,0l2.18-1,2.1-2.13.07-.08a.23.23,0,0,0,.06-.16v-.49l.59-2.7,1-2.61,1.38-2.39L140,53.33l2-1.83,2-1.36,1.94-.88,1.89-.41,2.49.34.72.44.24.49a.26.26,0,0,0,.23.14h0a.25.25,0,0,0,.21-.21l.12-.68.31-.4,1.39-.45,1.8.29.43.48.2.75-.26,1.41L154.46,54l-2,5.43L151.2,65v.65l.17.77a.28.28,0,0,0,.11.15l.45.28a.2.2,0,0,0,.13,0,.27.27,0,0,0,.18-.08l1.58-1.63L155,63.65l5-10.56.74-1.31.53-.41.75-1.2.87-.79,1.08-.52,1.24-.24.7.19.3.73-.39,1.82-.93,2a.24.24,0,0,0,.1.32.19.19,0,0,0,.12,0,.26.26,0,0,0,.21-.11L167,51.28l1.47-1.41,1.46-1,2.76-.9,1.12.09.93.47.6.66.26.76-.35,2-.93,2.06-1.24,2.27-.86,1.55-.75,1.42-.37.73-.46,1-.44,1-.41,1-.27.6-.23,1.61a.25.25,0,0,0,0,.17l.28.42a.27.27,0,0,0,.18.11l.77.09a.27.27,0,0,0,.12,0l1.71-.92,1.84-1.38.72-.89a.18.18,0,0,0,.06-.13l0-.45,1-2.91,1.63-3,2.06-2.75L182.16,51,184.92,49l2.85-1.49,2.67-.64.8.15.85.62a.21.21,0,0,0,.15,0h.06a.24.24,0,0,0,.17-.14l2-4.73,4.3-8.7,1.33-2.29,1.2-2.34.1-.23.07-.11.18-.24.14-.13.17-.12.18-.1.2-.08.2-.05.2,0H203l.21,0,.2.06.4,0h.69l.7,0,.69-.06.69-.08.25-.1H207l.16.07.1.08.08.11,0,.12v.14l0,.13-.06.12-.08.1-.11.08-.48.51-.44.51-.41.53-.4.55-.37.56-.35.58-.32.59-.5,1-2.36,4.72-4.27,8.94L194.07,55l-1.95,5.28-.58,2.6v.28l.15.44a.24.24,0,0,0,.16.15l.31.1h.08a.31.31,0,0,0,.13,0l1.32-.77,1.73-1.69,1.48-1.82.89-1.08.57-.23.53.1.31.43.33,1.74,0,1.11-1.08,1.9-1.93,2.17-2.35,1.78-2.33.71-1.8-.07-1.25-.53-.83-1-.4-1.54.18-2.17.89-2.5a.25.25,0,0,0-.14-.31l-.1,0a.24.24,0,0,0-.22.14L187,62.67l-1.68,2.16-3.53,3-1.61.79-1.54.35-1.51-.18-1.12-.8-.35-.66a.26.26,0,0,0-.19-.13h0a.25.25,0,0,0-.18.08l-.82.81-2.18,1.51-2.7.65-1.41-.2-1.46-.79L165.54,68l-.5-1.57.06-1.81.46-2L167,58.83l1.86-3.57.44-.8a.26.26,0,0,0-.22-.37.23.23,0,0,0-.18.08l-2.3,2.44-4.81,5.93-4.46,6.22-.86,1.42-.64.44-1.63-.21-.25-.1h-.09a.21.21,0,0,0-.15,0l-1.22.93-1,.41-1.94-.17-1.42-1-.95-1.49-.4-1.65V66l.3-.82a.25.25,0,0,0-.13-.32l-.1,0a.27.27,0,0,0-.23.14l-1.42,2.84L143,70.3l-2.5,1.86-2,.71-1.76-.21-1.62-1-.48-.63a.23.23,0,0,0-.17-.1h0a.27.27,0,0,0-.16.06l-1.5,1.24L130,73.57l-2.61.61L125.2,74l-1.74-1.1-1.21-1.93-.13-.68V70a.26.26,0,0,0-.16-.23h-.09a.25.25,0,0,0-.19.09l-.56.64-1.35,1.12-2.23,1.91-2.86.83-2.09-.09-1.45-.64-1-1.2-.47-1.83.18-2.12.83-3,3.09-7.51a.25.25,0,0,0-.1-.32.31.31,0,0,0-.13,0,.28.28,0,0,0-.2.1L108,64.85l-6.71,9.49-1,.87-1.08.39-.87-.13-.3-.17-.64-.09-.14-.2.35-1.45a.24.24,0,0,0-.1-.27.25.25,0,0,0-.14,0,.27.27,0,0,0-.15,0l-.58.45-1.65,1.17L93.38,76l-1,.68-.9.61-.91.59-.93.57-.76.43a.22.22,0,0,0-.11.12l-.63,1.51-.84,1.75L86.41,84l-1,1.66-1.08,1.61-1.15,1.55L82,90.32l-1.3,1.43-1.37,1.37-.79.72-.88.5-1,.3-1,.07ZM82.5,81.69a.3.3,0,0,0-.15,0l-1.14.78-1.19,1-1.12,1-1,1.12-1,1.19-.85,1.26-.76,1.33a.24.24,0,0,0,0,.31.27.27,0,0,0,.16.06.27.27,0,0,0,.17-.06l1.13-1,1.11-1L79,86.63l1-1.11,1-1.15.93-1.19.79-1.09a.26.26,0,0,0,0-.32A.27.27,0,0,0,82.5,81.69ZM93.19,55.81l-.12,0-3.41,1.84L87.18,59.6l-2,2-2.89,4.11L80.73,69l-.08.37-.13.52-.35,2a.25.25,0,0,0,.12.26.27.27,0,0,0,.12,0,.27.27,0,0,0,.17-.06l.37-.34L83.06,70l3.18-3.29,7.29-8.89.23-.43a.22.22,0,0,0,0-.18L93.43,56a.25.25,0,0,0-.14-.16Zm56.62-3.17-1.87.51-2,1.19-2,1.84-2.08,2.49-2.67,4.72L138,66.73v.71a.28.28,0,0,0,.16.23l.09,0a.29.29,0,0,0,.18-.07L142,64.26l3.87-4.72L150.09,53a.24.24,0,0,0,0-.28.24.24,0,0,0-.2-.11Zm40.81-1.94-.12,0-2.78,1.46-2.84,2.36-2.43,2.8-1.67,2.84-1.22,3.38-.15.55a.25.25,0,0,0,.09.26.24.24,0,0,0,.16,0,.27.27,0,0,0,.12,0l.88-.49,1.42-1.4,4.23-5.35,4.51-6a.27.27,0,0,0,0-.32A.27.27,0,0,0,190.62,50.7Zm-52.68-16a.22.22,0,0,0-.19.09l-.82.94-2.65,4.36-4.78,9.28-2.58,7.83a.26.26,0,0,0,.15.31l.09,0a.24.24,0,0,0,.22-.14l6.47-12.59,3.49-7,.82-2.72a.43.43,0,0,0,0-.11.25.25,0,0,0-.14-.27Z" transform="translate(-13.84 -11.89)"/><path d="M206.91,28.41h0l.09,0,.05,0,0,.05,0,.06v.14l0,.06,0,.05-.1.08s0,0-.05,0l-.47.51L206,30l-.42.53-.4.56-.38.57-.35.59-.33.59-.5,1-2.36,4.72-4.28,9L193.83,55l-2,5.27s0,0,0,.06l-.58,2.56a.92.92,0,0,0,0,.16l0,.2a.31.31,0,0,0,0,.13l.14.37a.48.48,0,0,0,.31.31l.32.1a.39.39,0,0,0,.15,0,.51.51,0,0,0,.25-.06l1.33-.77.09-.08,1.69-1.65,0,0,1.45-1.8.85-1,.44-.18.37.07.21.3.32,1.63,0,1-1,1.8-1.89,2.13-2.28,1.73-2.24.7-1.71-.05-1.2-.49-.76-.9-.36-1.4L188,63l.88-2.5a.5.5,0,0,0-.28-.63.41.41,0,0,0-.19,0,.51.51,0,0,0-.45.28l-1.15,2.41-1.63,2.12-3.48,2.92-1.56.77-1.45.33-1.44-.15-1-.73-.33-.61a.5.5,0,0,0-.37-.26h-.07a.47.47,0,0,0-.35.15l-.8.78-2.09,1.46-2.61.65-1.32-.18L166.85,69l-1.09-1.15-.46-1.44,0-1.75.45-2L167.24,59l1.85-3.56.44-.81a.5.5,0,0,0-.15-.64.46.46,0,0,0-.29-.1.52.52,0,0,0-.37.16l-2.32,2.47-4.82,5.93-4.47,6.25L156.29,70l-.52.36-1.47-.19-.26-.09a.47.47,0,0,0-.17,0,.45.45,0,0,0-.3.1L152.4,71l-1,.4-1.81-.17-1.33-.89L147.43,69,147,67.42V66l.29-.83a.5.5,0,0,0-.28-.63.65.65,0,0,0-.19,0,.49.49,0,0,0-.45.28L145,67.6l-2.21,2.5-2.44,1.81-2,.7-1.65-.19-1.49-.93-.49-.63a.58.58,0,0,0-.34-.19h-.06a.49.49,0,0,0-.32.12L132.58,72,130,73.32l-2.53.6-2.17-.2-1.64-1-1.13-1.81-.14-.63V70a.5.5,0,0,0-.33-.45.51.51,0,0,0-.17,0,.48.48,0,0,0-.37.17l-.54.62-1.35,1.13-2.19,1.87-2.73.79-2-.08-1.4-.59-.89-1.11L110,70.62l.17-2.06.81-3L114,58a.5.5,0,0,0-.22-.62.45.45,0,0,0-.25-.07.51.51,0,0,0-.4.2l-5.34,7.17-6.67,9.45-.89.8-1,.38-.72-.11-.31-.15a.34.34,0,0,0-.17,0L97.61,75h0l.33-1.34a.5.5,0,0,0-.22-.54.45.45,0,0,0-.27-.08.5.5,0,0,0-.31.1l-.56.44-1.64,1.17-1.68,1.11-.1.06-.88.63-.89.61-.91.59-.92.55-.77.44a.49.49,0,0,0-.21.24L88,80.43l-.83,1.74-.92,1.69-1,1.65-1.07,1.6L83,88.65l-1.22,1.49-1.29,1.43-1.37,1.36-.75.69-.83.48-.92.29-.94.07-.79-.17L74.09,94l-.72-.45L72.74,93l-.53-.66-.41-.75-.28-.8-.14-.84v-.85l.14-.83.29-.8.43-.75.64-.9.7-.89.75-.85.78-.81.82-.78.85-.74.89-.69.93-.65,1-.61,1-.56,1-.52,1-.47,1.12-.46,1.14-.44,0,0,.43-.22a.45.45,0,0,0,.22-.23l2.09-4.45,1.28-2.26a.5.5,0,0,0-.16-.67.56.56,0,0,0-.27-.08.49.49,0,0,0-.41.22l-1.88,2.75L83.88,74.6l-2.24,1.53L80,76.7l-1.84-.06-1.3-.54-.48-.58a.54.54,0,0,0-.35-.18h0a.51.51,0,0,0-.34.14l-.77.71-2.57,1.47-2.25.61-2-.18-1.76-.91L65.1,75.86l-.49-1.37.17-1.8.87-2.57,2.41-5.35,2.54-5.12a.49.49,0,0,0-.22-.67l-.13-.07-.5-.45-.44-.71.85-1.55,2.54-2.67,1.33-1,1-.35.77.11.78.51.59.69.18.53-1.21,3.25-.59,1.31L75,60.1l-4,8.81-.39.76-.48,1-.31.68a.38.38,0,0,0,0,.1l-.38,1.73a.53.53,0,0,0,.13.45l.24.25a.54.54,0,0,0,.34.16l.65,0h0A.59.59,0,0,0,71,74L73,73l.12-.08,2.39-2.13.07-.08.25-.34a.51.51,0,0,0,.09-.16l1.29-4.72,1.35-2.79,1.77-2.52,4.41-4.42L87.11,54l2.39-1.39,2.26-.92,2-.42,1.42.1,1.21.71a.47.47,0,0,0,.25.07A.5.5,0,0,0,97,52l.73-.87L99,50.69l1.18-.14.76.15.36.57.21.5,0,.19-.1.34-.26.36-.16.18-.07.09-5,9.24-2.82,5.56-2,4.89a.51.51,0,0,0,.46.7.47.47,0,0,0,.28-.09l.88-.59,1.84-1.34,1.78-1.42,1.72-1.49,1.67-1.55,1.06-1.07a.45.45,0,0,0,.11-.17l3.6-9.65,6.06-14,5.11-10,.15-.21.13-.12.15-.11.17-.09.17-.07.18-.05.19,0H117l.18,0,.22.06h.11l.38,0h.74l.74,0,.74-.06.72-.1.13,0,.13-.06h.13l.1,0,.06,0,0,.06,0,.07v.13l0,.1-.2.19-.49.53-.46.55-.45.56-.42.58-.39.61-.37.61-.34.62-1.67,3.21-6.24,12.39L106,61.05a.48.48,0,0,0,.22.64.39.39,0,0,0,.23.07.52.52,0,0,0,.43-.24L109.75,57,113,53.69l2.18-1.75,1.46-.61,2.33.21.74.55.34,1.13-1.34,4.13-3.12,8.08-1,3.21a.55.55,0,0,0,0,.4l.43.75a.5.5,0,0,0,.44.26.46.46,0,0,0,.23-.06l1.45-.75a.27.27,0,0,0,.12-.09l2.12-2.07,2.45-2.8.11-.13a.51.51,0,0,0,.11-.31l0-1.47,1.46-7.09,2.33-7.1,2.77-6,3.24-5.53,2.91-4,2.54-2.42,2.13-.89,1.18.08,1.09.51.8.9.36,1.32-.21,2.07-1,3-3.33,7.24-4.51,7.88-7.68,11.84a.65.65,0,0,0-.08.22l-.11,1.15,0,1.67a.58.58,0,0,0,.06.26l.74,1.29a.5.5,0,0,0,.31.24l1.66.41.12,0a.54.54,0,0,0,.22,0l2.18-1.06a.33.33,0,0,0,.14-.1l2.06-2.1.05-.07a.47.47,0,0,0,.12-.31v-.45l.58-2.66,1-2.57,1.36-2.36,3.49-4.24,2-1.8,2-1.34,1.89-.86,1.79-.4,2.45.32.61.38.21.42a.5.5,0,0,0,.44.28h.08a.5.5,0,0,0,.42-.41l.11-.62.22-.29,1.26-.41,1.65.27.33.37.18.64-.24,1.29-1.24,2.51,0,0-2,5.4a.14.14,0,0,0,0,.06L151,64.94a.45.45,0,0,0,0,.11v.6a.37.37,0,0,0,0,.11l.17.72a.53.53,0,0,0,.22.31l.44.27a.53.53,0,0,0,.27.08.51.51,0,0,0,.36-.15L154,65.36l0,0,1.18-1.52.06-.09,5-10.48.69-1.25.52-.42a.63.63,0,0,0,.11-.12l.66-1.08.81-.75,1-.5,1.18-.24.53.15.22.55-.36,1.68-.93,2a.51.51,0,0,0,.2.65.59.59,0,0,0,.25.07.52.52,0,0,0,.41-.21l1.63-2.24,1.44-1.39,1.39-.95,2.66-.88,1,.07.85.41.57.61.22.64L175,51.89l-.91,2-1.24,2.28L172,57.76l-.75,1.42-.38.74-.46,1-.44,1-.41,1-.27.6a.61.61,0,0,0,0,.13L169,65.11a.54.54,0,0,0,.08.35l.28.42a.55.55,0,0,0,.36.22l.74.08h.06a.59.59,0,0,0,.23-.05l1.72-.92.07,0,1.8-1.36.09-.09.68-.84a.54.54,0,0,0,.11-.27l0-.39,1-2.87,1.6-3,2-2.72,2.41-2.41L185,49.17l2.79-1.46,2.57-.62.75.12.79.59a.53.53,0,0,0,.3.09h.13a.5.5,0,0,0,.33-.29l2-4.71L199,34.2l1.34-2.32,1.21-2.36.09-.2,0-.06.17-.22.12-.12.14-.1.16-.09.16-.06.17-.05.17,0h.18l.17,0,.2.06h.12l.36,0h.71l.7,0,.7-.06.68-.09a.58.58,0,0,0,.14,0l.12-.06h.07M127.16,57.76a.51.51,0,0,0,.45-.27l6.47-12.6,3.48-7,0-.08.81-2.68a.19.19,0,0,0,0-.07V35a.52.52,0,0,0-.29-.53.48.48,0,0,0-.2,0,.49.49,0,0,0-.38.17l-.82.95a.18.18,0,0,0-.05.07L134.05,40l-4.77,9.26,0,.08-2.56,7.79a.5.5,0,0,0,.28.62.43.43,0,0,0,.19,0m52.5,6.91a.53.53,0,0,0,.24-.06l.88-.49.11-.08,1.37-1.36,0,0,4.22-5.34,4.5-6a.5.5,0,0,0,0-.62.54.54,0,0,0-.62-.12L187.6,52l-.09.06-2.79,2.32-.06.06-2.4,2.77-.06.08-1.63,2.81a.2.2,0,0,0,0,.08l-1.22,3.38-.14.53a.49.49,0,0,0,.49.62m-41.37,3.27a.5.5,0,0,0,.35-.14l3.52-3.36,0,0,3.85-4.69,0-.05,4.21-6.49a.5.5,0,0,0,0-.57.49.49,0,0,0-.4-.21l-.13,0-1.87.51-.13.05-1.93,1.16-.08.06-2,1.81,0,0-2.06,2.47-.06.07-2.64,4.69a.25.25,0,0,0,0,.09l-1.1,3.29a1,1,0,0,0,0,.17l0,.63a.49.49,0,0,0,.3.45.72.72,0,0,0,.19,0M80.41,72.48a.5.5,0,0,0,.34-.13l.37-.33,2.13-1.91,3.19-3.31,7.28-8.87.06-.08.2-.39a.5.5,0,0,0,0-.38l-.35-1.16a.49.49,0,0,0-.29-.32.41.41,0,0,0-.19,0,.53.53,0,0,0-.24.06l-3.41,1.84-.07,0L87,59.41l0,0-1.94,2,0,.06-2.87,4.07,0,.08L80.5,68.93a.5.5,0,0,0,0,.13l0,.26-.15.59-.35,2a.49.49,0,0,0,.25.53.53.53,0,0,0,.24.06M75.51,90a.5.5,0,0,0,.33-.12l1.15-1,1.11-1,1.08-1.09,1-1.12,1-1.16.93-1.2.78-1.08a.5.5,0,0,0-.05-.64.47.47,0,0,0-.35-.15.52.52,0,0,0-.29.09L81,82.34l-1.2,1-1.13,1-1,1.14-1,1.21L75.83,88l-.75,1.3a.5.5,0,0,0,.43.75M206.9,27.91l-.2,0-.18.08-.68.08-.68.06-.69,0h-.68l-.35,0-.23-.06-.24,0h-.24l-.23,0-.23.06-.23.09-.21.12-.19.14-.17.16-.2.26-.08.13-.1.22-1.19,2.34L198.57,34l-4.31,8.71-2,4.73-.89-.65-1-.16-2.73.66-2.88,1.51L182,50.85l-2.45,2.46-2.08,2.78-1.64,3.06-1,3,0,.45-.68.84-1.8,1.36-1.72.91-.74-.08-.28-.42.21-1.54L170,63l.41-1,.43-.95.46-1,.37-.73.75-1.42.86-1.55,1.24-2.29.95-2.12.37-2.09-.3-.87-.71-.75-1-.49-1.22-.09-2.82.94-1.49,1-1.5,1.45-1.65,2.28,1-2,.4-1.89-.37-.92-.89-.24-1.35.28-1.14.56-.91.84-.69,1.13-.6.48L159.8,53l-5,10.5L153.64,65l-1.58,1.63-.45-.28-.16-.71v-.6l1.26-5.58,2-5.4L156,51.5l.27-1.47-.24-.87-.52-.58-1.95-.32-1.52.49-.39.52-.13.74-.27-.55-.83-.51-2.64-.35-1.93.43-2,.9-2,1.38-2.06,1.86-3.53,4.29-1.4,2.43-1,2.65-.6,2.74v.5l-.06.07-2,2.07L128.9,69l-1.66-.42-.73-1.29,0-1.66.11-1.11,7.68-11.85,4.53-7.91,3.36-7.3,1-3.13.23-2.21L143,30.58l-.94-1.07-1.27-.59-1.39-.1-2.33,1-2.64,2.51-2.95,4-3.27,5.58L125.46,48l-2.34,7.16-1.48,7.15,0,1.52-.11.13L119,66.75l-2.09,2-1.45.75-.43-.76,1-3.21,3.11-8,1.39-4.3-.43-1.45-1-.72-2.59-.24-1.65.68-2.25,1.82-3.3,3.37-2.93,4.56,4.4-9.6,6.24-12.37,1.66-3.2.34-.62.36-.6.38-.58.41-.57.43-.55.45-.53.48-.51.24-.24.12-.25,0-.21,0-.2-.08-.19-.13-.17-.17-.12-.23-.08-.17,0-.21,0-.19.09-.71.09-.72.06-.72,0h-.73l-.36,0-.24-.06-.25,0h-.25l-.25,0-.25.06L116,31l-.22.13-.2.15-.18.17-.21.27-5.13,10-6.07,14-3.6,9.67-1.07,1.07L97.71,68,96,69.5l-1.76,1.4-1.82,1.34-.87.58,2-4.9,2.81-5.53,5-9.22.16-.17.35-.48.16-.55-.08-.35-.24-.58-.5-.78L100.24,50l-1.32.15-1.44.5-.83,1-1.3-.77-1.61-.11-2.13.44-2.33,1L86.84,53.6,84.4,55.42l-4.46,4.47-1.82,2.59-1.39,2.88-1.31,4.75-.25.34-2.4,2.14-2,1-.65,0-.24-.25.38-1.73.31-.69.47-1,.39-.76,4-8.83L76,58.78l.58-1.28,1.28-3.45-.27-.79-.69-.82L76,51.83l-1-.14-1.17.41-1.43,1L69.75,55.9l-1,1.86.64,1,.59.55.2.09-2.55,5.13-2.43,5.39-.89,2.65-.19,2,.56,1.57,1.39,1.46,1.92,1,2.15.2,2.41-.65L75.2,76.6l.81-.76.56.68,1.5.62,2,.07,1.78-.63L84.2,75l2.37-2.31,1.91-2.79-1.29,2.25-2.1,4.49-.43.22-1.14.43-1.13.47-1,.48-1,.52-1,.57-1,.63-.94.66-.91.71-.88.75-.84.8-.8.83-.75.87-.72.9-.67.94-.46.81-.32.88-.16.92v.93l.16.92.3.89.45.81.58.73.7.63.79.49.87.35.91.21,1.07-.09,1-.32.93-.53.79-.73,1.38-1.38,1.31-1.44L83.38,89l1.16-1.56,1.09-1.62,1-1.67.93-1.72.84-1.76L89,79.13l.76-.43.94-.57.92-.59.9-.61.89-.64.07-.05,1.7-1.11L96.86,74l.58-.45-.38,1.55.26.39.67.08.38.19.93.14,1.23-.46,1-.9L108.23,65l5.33-7.16-3.11,7.54-.83,3.09-.17,2.2.48,1.89,1,1.29,1.6.68,2.17.08,2.91-.84,2.27-1.94,1.38-1.16.56-.64v.27l.17.76,1.24,2,1.83,1.17,2.38.21,2.66-.63,2.7-1.38,1.5-1.24.55.7,1.67,1,1.87.22,2.16-.76,2.54-1.89,2.29-2.58L146.86,65l-.32.91v1.53l.43,1.73,1,1.53,1.53,1,2.06.19,1.12-.47,1.22-.93.31.11,1.72.22.76-.53.88-1.44L162,62.69l4.8-5.91,2.3-2.44-.44.81-1.87,3.59-1.46,3.78-.47,2.08,0,1.9.52,1.62,1.22,1.3,1.55.82,1.5.2,2.79-.69,2.2-1.54.83-.82.38.72L177,69l1.66.18,1.59-.37,1.66-.82,3.57-3,1.7-2.2,1.17-2.46-.9,2.56-.18,2.25.42,1.59.9,1.08,1.4.58,1.89.06,2.4-.75,2.39-1.82,2-2.21,1.11-1.95,0-1.23-.35-1.8-.4-.55-.7-.13-.7.29-.92,1.12-1.46,1.8-1.69,1.66-1.32.76-.32-.1-.13-.38,0-.2.57-2.56,2-5.27,3.17-7.4,4.28-8.94,2.35-4.72.5-1,.32-.58.34-.57.37-.56.38-.53.41-.53.43-.5.45-.49.16-.12.12-.16.07-.18,0-.2,0-.2-.08-.18-.12-.15-.16-.12-.22-.07-.16,0ZM127.16,57.26l2.56-7.8,4.78-9.26,2.61-4.32.82-1V35l-.81,2.68-3.48,7-6.47,12.59Zm52.5,6.91.13-.52L181,60.31l1.63-2.81L185,54.73l2.79-2.33L190.62,51l-4.5,6-4.21,5.33-1.37,1.36-.88.49Zm-41.37,3.27v-.63l1.1-3.3L142,58.83l2.06-2.47,2-1.81L148,53.39l1.87-.5-4.21,6.49-3.85,4.7-3.53,3.36ZM80.41,72l.35-2,.14-.54,0-.31,1.57-3.29,2.87-4.07,1.94-2,2.45-1.9,3.41-1.84.35,1.17-.2.38-7.28,8.87-3.17,3.28-2.11,1.88-.37.34Zm-4.9,17.55.75-1.31L77.11,87l.94-1.18,1-1.11,1.1-1,1.18-.94,1.15-.79L81.72,83l-.93,1.18-1,1.15-1,1.11-1.06,1.06-1.1,1-1.14,1Z" transform="translate(-13.84 -11.89)"/><path class="cls-2" d="M285.4,59l-.79-.23-.72-.73-.19-.25-.08-.25,0-.24.11-.34.14-.57,2-5.33,5.29-12.28,5.1-11.38.77-1.08.48-.54.35-.24.46-.21.65-.29.71-.39.58-.39.47-.13.66.25.4.79-3.53,8.15L292.42,45.8a.26.26,0,0,0,.06.3.27.27,0,0,0,.17.06.22.22,0,0,0,.13,0l1-.62.92-.67.89-.71.85-.77.81-.8.77-.85.72-.88.67-.93.62-1,.58-1,.52-1,.45-1,.26.1.48.14.5.11.5.08.5,0,.51,0h.51l.31,0h.21l.18.05.17.08.15.12.12.15L306,37l.05.18v.19l0,.19-.06.17-.1.16-.14.14-.15.26-.77,1.28L304,40.79,303.12,42l-.93,1.17-1,1.12-1,1.09-1.07,1-1.12,1-1.16.93-1.21.89a.26.26,0,0,0-.07.33l1.15,2,1.16,1.41.25.26.29.24.88.32.86.19.87.1h.87l.87-.09.86-.18.83-.27.8-.35.76-.44.36-.27.09,0,.08,0h.15l.08,0,.07,0,.06,0,.05.06,0,.08,0,.07v1l.05.44.08.44.11.44.14.42.1.25-.6.5-.76.55-.82.47-.85.4-.88.33-.91.24-.92.17-.94.08h-.94l-.94-.08-.93-.16-.91-.24-1.59-.91-1.2-1-1-1.08-1-1.19-.76-1.07-.68-1a.26.26,0,0,0-.21-.11h0a.25.25,0,0,0-.21.17L290,52.81l-1,2.32L288.28,57l-.35,1.22-.16.42-.28.39-.49.17Z" transform="translate(-13.84 -11.89)"/><path d="M300.76,24.43l.49.19.3.6-3.48,8L292.19,45.7a.51.51,0,0,0,.13.59.5.5,0,0,0,.33.12.56.56,0,0,0,.27-.08l1-.63.93-.68.9-.73.86-.77.81-.81.78-.86.73-.9.68-.93.63-1,.58-1,.52-1,.35-.78.07,0,.5.15.51.11.52.08.52.06.52,0h.52l.25,0h.18l.13,0,.13.06.1.08.09.1.07.12,0,.13v.13l0,.14,0,.12-.07.12-.13.14a.36.36,0,0,0-.07.1l-.11.19-.76,1.27-.81,1.24-.88,1.2L302,43l-1,1.12-1,1.08-1.07,1-1.11,1-1.15.94-1.22.89a.5.5,0,0,0-.13.65l1.14,2,0,.07,1.16,1.39.23.26.06,0,.27.22a.36.36,0,0,0,.15.08l.8.27.05,0,.83.18h.06l.84.09h.95l.85-.09h.05l.83-.18h0l.81-.27.05,0,.77-.34.05,0,.73-.43.05,0,.3-.22.07,0h.11l0,0h0l0,0,0,0v.61l0,.46.05.46.08.46.12.45.14.44,0,.06-.42.37-.75.53-.79.46-.83.4-.87.32-.88.24-.91.17-.91.08h-.92l-.91-.08-.91-.16-.87-.23-1.56-.87-1.18-1-1-1-.95-1.18-.77-1.07-.68-1.05a.52.52,0,0,0-.42-.23h-.06a.48.48,0,0,0-.41.32l-.38,1-1,2.36L288,57l-.32,1.15-.15.39-.23.33L287,59l-1.49-.19-.74-.22-.65-.65-.14-.18-.06-.16v-.18l.11-.36.13-.53,2-5.31,5.29-12.28,5.08-11.34.73-1,.46-.52.31-.22.45-.21.69-.31.72-.4.5-.34.39-.12m0-.52-.62.18-.56.38-.69.38-.66.3-.49.23-.4.27-.49.57-.8,1.12L291,38.72,285.68,51l-2,5.35-.14.56-.12.39,0,.34.11.33.21.27.77.77.89.26,1.66.21.62-.22.35-.5.17-.45.34-1.2.72-1.9,1-2.34.39-1.08.69,1L292.1,54l1,1.2,1.06,1.1,1.24,1,1.65.93.93.25.95.16,1,.08h1l1-.08,1-.17.93-.26.9-.33.87-.41.83-.49.79-.56.73-.62-.16-.4-.14-.41-.1-.41-.08-.42-.05-.43,0-.43,0-.43v-.13l0-.13,0-.12-.07-.1-.08-.1-.1-.07-.12-.06-.12,0h-.13l-.13,0-.12,0-.11.07-.34.25-.73.43-.78.35-.8.26-.83.18-.85.08H301l-.84-.1-.83-.18-.8-.27-.27-.22-.24-.25-1.13-1.37-1.15-2,1.21-.89,1.17-.95,1.13-1,1.08-1.05,1-1.09,1-1.14.94-1.18.88-1.22.83-1.25.77-1.29.12-.21.16-.18.12-.21.08-.22,0-.24,0-.24-.07-.23-.12-.21-.15-.18-.19-.14-.22-.11-.23-.05h-.24l-.3,0h-.49l-.49,0-.49-.05-.49-.08-.48-.11-.47-.14-.46-.16-.09.16-.46,1-.52,1-.57,1-.61,1-.67.91-.71.87-.76.84-.8.8-.84.75-.87.71-.92.66-.94.62,5.88-12.45,3.55-8.18,0-.17-.45-.89-.83-.31Z" transform="translate(-13.84 -11.89)"/><path class="cls-2" d="M215.78,64.83,215.3,64l.95-2.94,3.17-6.48,5.64-10.4L232.21,32a.25.25,0,0,0-.21-.38h-.06l-1.12.25-1.13.32-1.11.37-1.09.42-1.06.49-1,.53-1,.59-1,.64-.94.68-.91.74-.44.39-.18.18-.16.2-.14.23-.11.24-.08.25-.05.25,0,.27v.26l0,.26.07.25.1.25.13.22.27.25.25.16.26.14.21.09-.19.06-.51.21-.5.24-.48.26-.47.29-.45.32-.44.34-.41.36-.4.38-.09.11-.12.1-.12.08-.13.08-.14.05-.14,0-.14,0h-.3l-.15,0-.15,0-.14-.05-.13-.06-.56-.36-.48-.45-.4-.52-.3-.58-.2-.62-.08-.65,0-.66.14-.64.25-.6.34-.56.93-1.25,1.5-1.7,1.64-1.57,1.76-1.44,1.87-1.28,2-1.13,2.06-1,2.13-.78,2.19-.61,2.23-.42,2.25-.24,2.27-.06,5.26.1,2.3.5,2.13.8,1.79,1,1.31,1.13.81,1.24.35,1.35-.25,2.94-1.22,3-2,2.93-2.5,2.57-2.94,2.23-3.3,1.88L236,49.28,233,49.9l-1.35,0-1.15-.31-1-.59-.76-.87a.27.27,0,0,0-.19-.08h0a.25.25,0,0,0-.19.14l-4.18,8.62-1.93,3.87L221.06,63l-.44.87-.56.52-.71.24-1.22.33h-.61l-.37,0Zm21.15-32.44L230.2,44.88a.24.24,0,0,0,0,.26.25.25,0,0,0,.21.11l.36,0h.76l.75-.06,2.31-.49,2.48-1.06,2.37-1.43,2-1.61,3-3.43.87-1.59.25-1.27a.37.37,0,0,0,0-.11l-.25-1-.61-.92-.08-.07-2-1.17-2.89-.56h-.05l-2.63,0a.23.23,0,0,0-.2.11.26.26,0,0,0,0,.24l.16.38Z" transform="translate(-13.84 -11.89)"/><path d="M237.63,26.49l5.21.09,2.27.49,2.09.78,1.75,1,1.25,1.09.78,1.16.33,1.26-.22,2.87-1.19,3-2,2.89-2.47,2.55-2.91,2.21-3.27,1.87L236,49l-3,.61h-1.29l-1.07-.28-.89-.54-.78-.87a.51.51,0,0,0-.37-.16h-.07a.48.48,0,0,0-.38.28l-4.19,8.62L222,60.55l-1.15,2.36-.4.8-.52.49-.62.21-1.18.32-.64,0-.32,0-1.23-.17-.36-.64.9-2.8,3.16-6.46,5.65-10.4,7.15-12.22a.5.5,0,0,0,0-.55.49.49,0,0,0-.4-.21l-.11,0-1.15.26-1.14.31-1.12.38-1.1.43-1.08.49-1.05.54-1,.6-1,.64-1,.7-.92.74-.45.41-.17.16,0,0-.15.18,0,.05-.12.2,0,.05-.1.21s0,0,0,.06l-.07.22a.13.13,0,0,0,0,.06l-.05.23s0,0,0,.06v.23a.06.06,0,0,0,0,.06V39l0,.23s0,0,0,.06l.07.22a.14.14,0,0,0,0,.06l.09.21s0,0,0,.05l.12.21a.53.53,0,0,0,.12.14l.26.2.21.14-.2.08-.51.25-.49.27-.49.3-.46.32-.44.35-.43.37-.41.4,0,0-.12.11-.07.05-.13.08-.11,0-.12,0-.1,0-.14,0h-.25l-.12,0-.11,0-.11,0-.52-.33-.45-.41-.37-.49-.29-.54-.19-.58-.08-.6,0-.61.13-.6.22-.57.32-.52.92-1.23,1.48-1.69L219,33.35l1.74-1.42,1.85-1.27,2-1.12,2-.95,2.1-.79,2.17-.6,2.21-.42,2.24-.24,2.28-.05m-.82,4.78-.12,1L230,44.76a.5.5,0,0,0,.44.74h.05l.31,0h.8l.73-.07h.06l2.28-.48.09,0,2.44-1,.06,0,2.34-1.41,0,0,2-1.59.07-.06,3-3.41a.18.18,0,0,0,.06-.09l.84-1.54a.47.47,0,0,0,.06-.15l.21-1.2a.54.54,0,0,0,0-.22l-.26-.95a.46.46,0,0,0-.07-.16l-.58-.84a.4.4,0,0,0-.15-.14l-2-1.17a.44.44,0,0,0-.16-.06l-2.8-.53h-.1l-2.63,0a.5.5,0,0,0-.41.22.52.52,0,0,0-.05.47l.14.33m.82-5.29-2.29.06-2.28.24-2.25.43-2.21.61-2.15.8-2.07,1-2,1.13-1.89,1.3L218.72,33l-1.65,1.58-1.51,1.73-.94,1.26-.37.6-.26.64-.14.69,0,.69.09.69.22.67.32.62.43.55.52.47.58.37.16.08.17,0,.17,0,.18,0h.17l.18,0,.17,0,.17-.06.16-.07.15-.09.14-.1.13-.12.08-.09.39-.37.41-.36.42-.33.44-.3.46-.29.47-.25.49-.24.49-.2.51-.18.3-.17-.22-.06-.32-.09-.25-.11-.24-.13-.23-.15-.22-.17-.11-.2-.09-.22-.07-.22,0-.23v-.23l0-.24,0-.23.07-.22.09-.21.13-.2.14-.19.16-.16.44-.39.9-.72.93-.68,1-.63,1-.59,1-.53,1.05-.47,1.08-.43,1.1-.36,1.11-.31,1.13-.26-7.16,12.23-5.65,10.41L216,61l-1,3,.59,1,1.53.23.37,0h.68l1.23-.34.76-.25.66-.63.44-.87,1.15-2.37,1.93-3.87,4.19-8.62.82.92,1,.61,1.21.32H233l3.12-.63,3.39-1.35,3.33-1.9,3-2.25,2.53-2.61,2-3,1.24-3.11.24-3-.38-1.43-.86-1.29-1.34-1.16-1.83-1-2.16-.81-2.35-.51-5.27-.1Zm-7.21,19,6.76-12.59.14-1.21-.18-.45,2.63,0,2.8.53,2,1.17.58.83.25,1-.21,1.2L244.29,37l-3,3.41-2,1.59L237,43.36l-2.44,1-2.27.48-.73.06h-.79l-.33,0Z" transform="translate(-13.84 -11.89)"/><path class="cls-2" d="M31.32,82.38l-.52-.87.13-1.86.58-1.82,2.34-5.54,2.59-5.58.82-1.33a.26.26,0,0,0,0-.28A.28.28,0,0,0,37,65h0l-.7.16-.71.18-.7.22-.69.24-.68.27-.67.3-.65.33-.12.07.08-.39.08-.51,0-.5,0-.51,0-.5-.06-.51-.09-.5L32,62.86l-.15-.48-.19-.48-.18-.4v-.2l.05-.22.07-.21.1-.2.12-.19.15-.17.16-.15.19-.13.2-.1.21-.08L33,59.8l.23,0,6.38-1.13a.25.25,0,0,0,.18-.15l1.18-2.66.91-1.79,4.38-10,1.35-3,3.32-6.55a.26.26,0,0,0,0-.29.24.24,0,0,0-.18-.07.18.18,0,0,0-.1,0L48.7,35l-1.88.86-1.9.83-1.9.79-1.92.77L39.17,39l-1.94.71-1.95.68-2,.65-2,.62-1,.29-.21.05L30,42h-.19l-.19,0-.19-.06-.18-.08-.16-.1-.15-.12-.14-.14-.11-.16-.1-.17,0-.09.18-.6.18-.7L29,39l.12-.72.08-.72.06-.72,0-.73v-.72l0-.44,1.79.13h2.1l2.1-.13,2.08-.28,2.06-.43,2-.57,2-.7,1.92-.85,1.86-1L49,30.05l1.71-1.22,1.61-1.34,1.81-1.61,1.68-.78h1.26l.68.31.41.38.51.41.24.38-.07.78-1.68,3.78-3.54,8.28-4.08,8.89-2.56,6-1.32,2.88a.23.23,0,0,0,0,.25.23.23,0,0,0,.2.1h0L60.05,55a.3.3,0,0,0,.19-.16l.39-.94L64.5,42.29,71.12,26.2,72,24.91l1.16-.51,2.3-.24.45-.08.38,0,.12,0,.28.15.26.09.59.69-.07.32-1.16,2.77-.69,1.45-4.27,9.58-6.76,18-.16.49-1.93,5.27-.78,1.75L57,79.42l-.16.33-.42.19-.25,0a.2.2,0,0,0-.11,0l-.62.29H55l-.46.17-.13,0-1.48.49-1.32-.1L51.05,80l.08-1.11,6.61-16.78a.25.25,0,0,0,0-.25.25.25,0,0,0-.2-.09h0L42.93,64.35a.26.26,0,0,0-.19.16L37.87,77.37l-.13.31L37,79.52,35.8,82.13l-.76.26-2.28,0-.28.08Z" transform="translate(-13.84 -11.89)"/><path d="M76.28,24.31h0l.28.14.07,0,.16.06.47.54,0,.15L76.13,28l-.7,1.48-4.28,9.6-6.76,18-.15.47-1.92,5.24-.79,1.77s0,0,0,0L56.72,79.32l-.12.24-.27.12h-.21a.54.54,0,0,0-.22,0l-.56.27H55a.65.65,0,0,0-.19,0l-.3.13-.13,0-.07,0L53,80.63l-1.19-.08-.45-.65.06-.94L58,62.17a.53.53,0,0,0-.08-.5.5.5,0,0,0-.39-.18h-.09L42.89,64.11a.49.49,0,0,0-.38.31L37.64,77.27l-.14.33-.68,1.79-1.2,2.53-.59.2-2.28.06-.15,0-.15,0-1-.1-.42-.7.13-1.72L31.74,78l2.34-5.54,2.57-5.56.82-1.34a.48.48,0,0,0,0-.55.5.5,0,0,0-.4-.21h-.11l-.73.16-.71.19-.71.22-.7.24-.69.28-.68.3-.3.16.06-.43.05-.52v-.52l0-.53,0-.52-.1-.51-.12-.51-.16-.5-.18-.49-.16-.33v-.1l0-.19.06-.18.08-.18.1-.16.13-.15.14-.13.16-.11.17-.09.18-.07.19,0,.26,0,6.36-1.13A.52.52,0,0,0,40,58.6L41.16,56l.92-1.83,4.38-10,1.34-3,3.32-6.57A.49.49,0,0,0,51,34a.52.52,0,0,0-.36-.16.54.54,0,0,0-.21.05l-1.86.88-1.88.86-1.89.82-1.9.8L41,38l-1.93.73-1.93.71-1.95.68-2,.65-2,.62-1,.29-.19,0-.16,0h-.16l-.16,0-.16,0-.15-.06-.14-.09-.12-.1L29,41.28l-.09-.13L28.8,41v0l.16-.53.19-.71.15-.72.12-.73.08-.73.06-.74,0-.73v-.88l1.55.11h2.11l2.12-.14,2.1-.28,2.07-.43,2-.58,2-.71,1.94-.85,1.88-1,1.8-1.11L50.87,29l1.62-1.34,1.74-1.56,1.62-.76H57l.57.26L58,26l.45.35.2.3-.06.61-1.67,3.79-3.53,8.26-4.1,8.91-2.54,6-1.33,2.88a.5.5,0,0,0,.46.71H46l14.13-2.51a.51.51,0,0,0,.38-.3l.4-1L64.72,42.4l6.6-16,.88-1.24,1-.45,2.33-.25.4-.08.32,0m0-.5-.41,0-.44.07-2.37.27-1.22.53-1,1.39L64.26,42.21,60.4,53.81l-.39.95L45.88,57.27l1.32-2.88,2.55-6,4.09-8.9,3.54-8.28,1.7-3.86.08-.85L58.82,26l-.51-.4-.46-.42-.74-.33H55.74L54,25.69l-1.79,1.6-1.61,1.33-1.69,1.22-1.77,1.09-1.85,1-1.91.84-2,.7-2,.57-2,.42-2.07.28-2.08.13H31.1L29,34.68l0,.71v.71l0,.72-.05.71-.09.71-.12.7-.14.7-.18.69-.21.69.09.21.11.19.13.18.16.16.18.14.19.12.21.09.22.06.22,0H30l.23,0,.22-.06,1-.29,2-.62,2-.65,2-.69,1.94-.71,1.94-.74,1.92-.77,1.9-.8,1.9-.82,1.88-.86,1.87-.89-3.32,6.57-1.35,3-4.38,10-.91,1.8L39.53,58.4l-6.36,1.13-.26,0-.25.06-.24.09-.22.12L32,60l-.19.18-.16.19-.14.22-.11.23L31.3,61l-.05.25v.25l.2.45.18.46.14.47.12.48.08.48.06.49,0,.49v.49l-.05.49-.07.48-.11.48-.13.47.63-.35L33,66.6l.65-.29.67-.27L35,65.8l.69-.21.7-.19.7-.15-.83,1.36L33.62,72.2l-2.34,5.56-.6,1.88-.14,1.93.63,1.05,1.33.14.26-.08,2.36-.06.86-.29,1.3-2.72L38,77.78l.13-.32L43,64.6,57.51,62,50.88,78.84,50.8,80l.68,1,1.54.1,1.45-.49.18,0,.35-.15h.45l.67-.32.3,0,.56-.25.2-.44L62,64.79,62.77,63l1.94-5.27.15-.48,6.76-18,4.27-9.57.69-1.47,1.17-2.81.1-.44-.72-.83-.29-.1-.34-.17-.18,0Z" transform="translate(-13.84 -11.89)"/><path class="cls-2" d="M248.1,62.62l-1.55-.91-1.07-1.28-.52-2L245,56l.57-2.42,1-2.33,1.32-2.15,3.37-3.82,2-1.64,1.92-1.22,1.86-.79,1.81-.37,2.41.31.68.4.23.43a.25.25,0,0,0,.22.13h0a.27.27,0,0,0,.21-.2l.11-.61.29-.35,1.33-.4,1.74.27.4.42.2.66-.25,1.26-1.2,2.24-1.91,4.88-1.22,5v.6l.17.7a.21.21,0,0,0,.11.15l.33.19a.19.19,0,0,0,.12,0,.28.28,0,0,0,.13,0l1.29-.78L265.86,55l1.08-1.38L272,42.9l.74-1.32.53-.43L274,40l.87-.79,1.08-.51,1.23-.24.71.19.29.73-.38,1.82L277,43a.27.27,0,0,0,.1.33.31.31,0,0,0,.13,0,.26.26,0,0,0,.2-.1l.83-1.16,2.21-2.29,2.18-1.44,2.14-.59,1.06.1.89.46.58.71.28.93-.22,1.43-.88,2.11-2.21,4.11-.74.78-.86.32-.83-.09-.62-.42-.66-1.51.32-2a.27.27,0,0,0-.14-.27l-.11,0a.22.22,0,0,0-.18.08l-1.79,1.89-5,6.12L269,59.34l-.62.81-.58.28-1.65-.2-.22-.09-.09,0a.3.3,0,0,0-.15.05l-1.19.91-2.21.7-1.82-.18-1.37-.85-.91-1.34-.38-1.48v-1.3a.25.25,0,0,0-.18-.24h-.07a.22.22,0,0,0-.21.12l-1.07,1.73-2.17,2.28-2.4,1.67-2,.63Zm12.21-17.87-1.8.46-1.92,1.06-2,1.66-2,2.23-2.57,4.25-1.07,3v.65a.26.26,0,0,0,.14.22l.11,0a.23.23,0,0,0,.15-.05L253,55.62,256.52,51l4.05-5.84a.26.26,0,0,0,0-.29.25.25,0,0,0-.2-.1Z" transform="translate(-13.84 -11.89)"/><path d="M284.72,38.05l1,.07.81.4.56.65.24.82-.2,1.32-.86,2.09-2.18,4.06-.69.74-.75.27-.71-.07-.51-.35-.61-1.37.31-1.93a.49.49,0,0,0-.27-.53.42.42,0,0,0-.22,0,.49.49,0,0,0-.36.15l-1.82,1.92-5,6.15-4.59,6.79-.58.77-.46.22L266.28,60l-.22-.08-.18,0a.54.54,0,0,0-.3.1l-1.12.86-2.11.68-1.76-.15-1.27-.8-.84-1.22-.37-1.41v-1.3a.5.5,0,0,0-.36-.48.36.36,0,0,0-.14,0,.52.52,0,0,0-.43.24l-1,1.69L254,60.3l-2.33,1.63-1.91.62-1.59-.17-1.43-.84-1-1.23-.49-1.91,0-2.32.55-2.38,1-2.3,1.3-2.11,3.34-3.8,1.93-1.62,1.87-1.2L257,41.9l1.73-.36,2.35.29.59.34.19.37a.51.51,0,0,0,.44.26h.08a.51.51,0,0,0,.41-.41l.1-.54.2-.24,1.21-.36,1.6.24.3.31.16.55-.22,1.13L265,45.72l0,.05-1.89,4.86a.14.14,0,0,0,0,.06l-1.21,5a.25.25,0,0,0,0,.12v.54a.49.49,0,0,0,0,.12l.16.64a.53.53,0,0,0,.24.31l.32.19a.55.55,0,0,0,.25.07.5.5,0,0,0,.26-.08l1.29-.77a.73.73,0,0,0,.09-.08L266,55.17l0-.05,1.06-1.36.06-.09,5-10.63.69-1.26.52-.43a.69.69,0,0,0,.11-.13l.66-1.06.81-.74,1-.5,1.18-.24.52.14.23.55-.36,1.69-.87,1.84a.49.49,0,0,0,.2.64.45.45,0,0,0,.25.07.49.49,0,0,0,.41-.21l.8-1.12L280.56,40l2.11-1.39,2.05-.58M249.24,58.56a.47.47,0,0,0,.3-.1l3.57-2.64.1-.1,3.52-4.61,4-5.83a.5.5,0,0,0-.41-.78h-.13l-1.79.46-.12,0-1.86,1-.08.06-1.92,1.62s0,0-.05.05l-2,2.22a.18.18,0,0,0-.05.07l-2.54,4.21,0,.09-1.05,3a.37.37,0,0,0,0,.18v.57a.5.5,0,0,0,.28.43.44.44,0,0,0,.22.05m35.43-21-2.21.63-2.22,1.47L278,42l-.82,1.15.9-1.89.4-1.89-.37-.92-.89-.24-1.35.27-1.14.56-.91.84-.7,1.12-.59.5-.74,1.33-5.05,10.67-1.06,1.35-1.58,1.6-1.29.78-.32-.19-.16-.64v-.54l1.2-5,1.9-4.85,1.22-2.31.26-1.32-.22-.78-.51-.53-1.87-.29-1.46.44-.38.46-.13.67-.26-.49-.79-.46L258.75,41l-1.86.38-1.9.81-1.94,1.24-2,1.66L247.68,49l-1.34,2.18-1,2.38L244.76,56l0,2.44.53,2.09,1.17,1.38,1.6.94,1.8.19,2.08-.68,2.44-1.7,2.2-2.32,1.07-1.73V58l.41,1.56.94,1.38,1.47.92,2,.17,2.28-.74,1.19-.91.28.1,1.72.22.71-.34.65-.87,4.61-6.81,5-6.11,1.79-1.89-.33,2.07.72,1.65.74.49.94.1,1-.35.81-.88,2.22-4.14.9-2.16L287.8,40l-.3-1-.7-.81-1-.49-1.15-.09ZM249.24,58.06V57.5l1.05-3,2.54-4.21,2-2.21,1.92-1.63,1.86-1,1.8-.45-4.05,5.83-3.51,4.59-3.57,2.64Z" transform="translate(-13.84 -11.89)"/><polygon class="cls-2" points="11.53 102.64 11.42 102.62 11.32 102.57 11.24 102.5 11.17 102.42 11.12 102.32 11.09 102.22 11.08 102.11 11.09 102.01 11.13 101.91 11.18 101.81 12.14 99.96 12.99 98.05 13.71 96.08 14.32 94.07 14.79 92.03 15.13 89.97 15.34 87.88 15.43 85.79 15.38 83.69 15.19 81.6 14.89 79.59 15.04 79.09 15.26 78.58 15.53 78.09 15.85 77.64 16.22 77.23 16.63 76.85 17.07 76.52 17.55 76.24 18.05 76.01 18.58 75.83 19.12 75.71 19.67 75.65 38.88 74.42 51.53 73.54 56.75 73.17 56.62 73.35 56.05 74.36 55.63 75.51 55.41 76.71 55.4 77.93 55.6 79.14 56 80.29 56.58 81.36 57.34 82.32 58.25 83.13 59.28 83.78 60.41 84.25 61.69 84.53 63.21 84.42 64.59 84 65.84 83.28 66.82 82.4 68.25 80.96 69.62 79.46 70.91 77.89 72.12 76.26 73.25 74.58 74.3 72.84 74.82 71.87 108.95 69.23 132.29 67.27 178.93 63.02 225.54 58.31 272.09 53.14 294.26 50.51 294.44 50.45 294.54 50.43 294.63 50.43 294.72 50.44 294.81 50.47 294.9 50.51 294.98 50.56 295.04 50.63 295.1 50.7 295.15 50.78 295.18 50.87 295.41 51.87 295.66 52.71 295.98 53.52 296.35 54.31 296.77 55.07 297.25 55.81 297.77 56.51 298.34 57.16 298.46 57.32 298.52 57.46 298.56 57.62 298.57 57.77 298.55 57.93 298.5 58.08 298.43 58.22 298.32 58.34 298.2 58.44 298.06 58.52 297.91 58.57 297.75 58.59 275.79 59.8 251.15 61.5 226.53 63.56 201.95 65.97 177.4 68.72 152.9 71.83 128.43 75.28 125.87 75.67 116.05 77.27 106.25 78.99 96.47 80.84 86.72 82.82 76.99 84.93 67.3 87.17 57.63 89.53 48 92.02 38.4 94.64 28.83 97.38 19.3 100.25 11.77 102.62 11.66 102.64 11.53 102.64"/><path d="M308.45,62.58h.11l.05,0,.05,0,0,0,0,0,0,.05,0,0v0l0,.12.21.86.26.85.32.83.38.81.43.78.49.74.54.71.54.63.09.12.05.1,0,.11v.22l0,.11-.05.1L312,70l-.08.08-.1,0-.11,0-.1,0-22,1.21L265,73.15l-24.62,2-24.59,2.41-24.55,2.76-24.51,3.1-24.46,3.45-2.57.4-9.82,1.6L120,90.64l-9.78,1.85-9.75,2-9.73,2.11-9.7,2.24-9.67,2.36-9.64,2.49-9.6,2.62L42.6,109l-9.53,2.87-7.51,2.37h-.19l-.05,0-.05,0,0,0,0-.05,0,0V114l0-.06.05-.09,1-1.88.86-1.93.72-2,.61-2,.47-2.06.35-2.08.21-2.1.08-2.11-.05-2.11-.19-2.11L29,91.5l.13-.42.21-.49.25-.46.31-.43.34-.4.39-.36.42-.31.46-.27.48-.22.5-.17.51-.12.52-.06,19.23-1.23,12.65-.88,4.73-.34-.45.79,0,.08-.4,1.11a.24.24,0,0,0,0,.08L69,88.56v1.35l.2,1.16a.24.24,0,0,0,0,.08l.38,1.11,0,.08.57,1a.43.43,0,0,0,0,.07l.74.92.06.07.88.78.06.05,1,.63.08,0,1.09.45.08,0,1.24.27h.15l1.44-.12.11,0,1.33-.41.1,0,1.21-.7.08-.06.95-.87L82.29,93l1.37-1.51L85,89.92l1.22-1.64,1.14-1.69,1.05-1.75.45-.84,34-2.63,23.34-2,46.65-4.25,46.6-4.71L286,65.28l22.16-2.63a.28.28,0,0,0,.13,0l.08,0h.11m0-.51h-.13l-.13,0-.12,0-22.17,2.62L239.36,70l-46.6,4.71-46.65,4.26-23.34,2L88.51,83.52l-.58,1.08-1,1.73L85.76,88l-1.2,1.62-1.28,1.56-1.36,1.5L80.5,94.1l-.93.86-1.21.69L77,96.07l-1.44.11-1.24-.27-1.09-.45-1-.62-.88-.79-.73-.92-.57-1L69.69,91l-.19-1.16V88.65l.2-1.16.4-1.11.56-1,.44-.62-5.75.42-12.65.87L33.48,87.29l-.57.07-.57.13-.55.18-.53.25-.49.29-.47.35-.42.4-.39.43-.33.47-.28.51-.23.53-.17.56.31,2.06L29,95.59,29,97.67l-.08,2.08-.21,2.07-.34,2.05-.47,2-.59,2-.72,2-.84,1.9-1,1.85-.08.14,0,.15V114l0,.16.05.14.08.14.11.12.13.09.15.06.15,0h.16l.15,0,7.54-2.37,9.53-2.87,9.56-2.74,9.6-2.62,9.63-2.49L81.2,99.3l9.69-2.23L100.61,95l9.75-2,9.78-1.85,9.79-1.72,9.82-1.6,2.56-.39L166.77,84l24.5-3.11,24.55-2.75L240.4,75.7l24.61-2,24.64-1.71,22-1.21.2,0,.19-.07.18-.11.16-.13.12-.16.1-.19.06-.19,0-.21,0-.2-.06-.2-.09-.18-.12-.17-.57-.64-.51-.69-.47-.72-.41-.74-.36-.78-.31-.8-.25-.81-.2-.84v-.08l0-.13-.05-.12-.07-.11-.09-.1-.1-.09-.11-.07-.12-.05-.13,0-.13,0Z" transform="translate(-13.84 -11.89)"/><path class="cls-2" d="M14.09,128.61V12.14H324.7V128.61ZM20.47,18.69a.25.25,0,0,0-.25.25V121.81a.25.25,0,0,0,.25.25H318.33a.25.25,0,0,0,.25-.25V18.94a.25.25,0,0,0-.25-.25Z" transform="translate(-13.84 -11.89)"/><path d="M324.45,12.39v116H14.34v-116H324.45m-304,109.92H318.33a.5.5,0,0,0,.5-.5V18.94a.5.5,0,0,0-.5-.5H20.47a.5.5,0,0,0-.5.5V121.81a.5.5,0,0,0,.5.5M325,11.89H13.84v117H325v-117ZM20.47,121.81V18.94H318.33V121.81Z" transform="translate(-13.84 -11.89)"/><polygon class="cls-1" points="271.01 99.31 269.81 100.25 268.44 100.79 267.06 100.95 265.85 100.81 264.74 100.39 263.75 99.74 262.9 98.9 262.24 97.9 261.74 96.75 261.43 95.51 261.32 94.21 261.69 91.83 262.13 90.7 262.75 89.7 263.54 88.84 264.51 88.17 265.67 87.72 267 87.58 268.37 87.73 269.69 88.22 270.88 89.14 271.81 90.55 274.74 88.5 273.52 86.75 271.8 85.35 269.64 84.45 267.12 84.15 264.95 84.36 263.04 85.02 261.38 86.02 260 87.29 258.9 88.8 258.11 90.49 257.62 92.28 257.45 94.1 257.63 95.99 258.17 97.85 259 99.59 260.13 101.14 261.5 102.45 263.12 103.49 264.94 104.16 266.95 104.38 269.38 104.08 271.71 103.18 273.68 101.73 274.44 100.8 275.01 99.75 271.89 97.92 271.01 99.31"/><polygon class="cls-2" points="61.69 36.27 61.18 35.1 61.36 33.35 62.24 31.75 63.54 30.58 65.05 30.08 66.4 30.44 66.8 30.92 66.99 31.64 66.77 33.2 65.84 34.8 64.48 36.06 62.9 36.57 61.69 36.27"/><path d="M78.91,42.23l1.2.32.31.38.15.57L80.38,45l-.88,1.55-1.31,1.22-1.46.47-1-.25-.43-1,.17-1.58.82-1.54,1.25-1.14,1.39-.46m0-.52-1.63.54-1.39,1.27L75,45.22,74.77,47l.58,1.35,1.4.34,1.7-.55,1.45-1.35,1-1.7.22-1.65-.21-.78-.48-.58-1.5-.4Z" transform="translate(-13.84 -11.89)"/><path class="cls-1" d="M308.68,102.47l-.83-1.73-1.1-1.53-1.37-1.29-1.62-1-1.85-.66-2-.22-2,.21-1.84.62-1.65,1L293,99.07l-1.15,1.51L291,102.3l-.55,1.87-.18,2,.17,1.89.52,1.85.83,1.72,1.12,1.52,1.38,1.28,1.63,1,1.85.64,2.05.22,2-.21,1.84-.62,1.64-1,1.4-1.25,1.13-1.5.85-1.71.54-1.86.18-1.95-.17-1.87Zm-3.52,6.09-.46,1.13-.64,1-.82.86-1,.67-1.14.43-1.3.15-1.28-.14-1.14-.43-1-.65-.81-.84-.65-1-.47-1.14-.29-1.23-.09-1.27.37-2.43.46-1.14.63-1,.81-.85,1-.67,1.16-.43,1.3-.14,1.26.13,1.13.41,1,.65.81.83.65,1,.49,1.13.29,1.23.11,1.28Z" transform="translate(-13.84 -11.89)"/><rect class="cls-1" x="298" y="100.17" width="3.04" height="4.05"/></svg>