<svg id="Layer_1" data-name="Layer 1" xmlns="http://www.w3.org/2000/svg" viewBox="0 0 311.11 116.96"><defs><style>.cls-1,.cls-2{fill:#fff;}.cls-1{stroke:#000;stroke-miterlimit:10;}</style></defs><title>holy fuck i think i got it</title><polygon class="cls-1" points="209.44 94.43 209.2 96.83 208.89 97.94 208.4 98.9 207.75 99.72 206.91 100.36 205.88 100.78 204.63 100.92 203.41 100.79 202.4 100.38 201.57 99.74 200.92 98.93 200.44 97.96 200.12 96.86 199.89 94.43 199.89 84.26 196.08 84.26 196.08 94.43 196.19 96.34 196.53 98.17 197.13 99.86 198.01 101.33 199.19 102.56 200.67 103.53 202.49 104.15 204.66 104.35 206.77 104.16 208.56 103.57 210.04 102.64 211.22 101.43 212.12 99.97 212.74 98.28 213.1 96.42 213.22 94.43 213.22 84.26 209.44 84.26 209.44 94.43"/><polygon class="cls-1" points="239.23 95.61 247.48 95.61 247.48 92.46 239.23 92.46 239.23 87.66 248.78 87.66 248.78 84.26 235.42 84.26 235.42 104.21 249.03 104.21 249.03 100.81 239.23 100.81 239.23 95.61"/><path class="cls-1" d="M243.74,107.68l1.12-1.37.71-1.68.24-1.85-.12-1.2-.35-1.2-.56-1.13-.74-1-.9-.85-1.07-.67-1.2-.43-1.3-.14H230.9v20h3.81v-6.69h3.76l4,6.69h4.28l-4.47-7.51Zm-2-3.63-.52,1-.79.69-1,.26h-4.78V99.55h4.61l1,.24.86.67.59,1,.22,1.29Z" transform="translate(-13.84 -11.89)"/><polygon class="cls-1" points="124.31 94.43 124.08 96.83 123.76 97.94 123.28 98.9 122.62 99.72 121.79 100.36 120.75 100.78 119.51 100.92 118.29 100.79 117.27 100.38 116.45 99.74 115.8 98.93 115.31 97.96 115 96.86 114.76 94.43 114.76 84.26 110.95 84.26 110.95 94.43 111.06 96.34 111.41 98.17 112 99.86 112.88 101.33 114.06 102.56 115.55 103.53 117.37 104.15 119.54 104.35 121.64 104.16 123.43 103.57 124.91 102.64 126.09 101.43 126.99 99.97 127.61 98.28 127.97 96.42 128.09 94.43 128.09 84.26 124.31 84.26 124.31 94.43"/><polygon class="cls-1" points="95.38 104.21 99.19 104.21 99.19 95.95 106.97 95.95 106.97 92.8 99.19 92.8 99.19 87.66 108.54 87.66 108.54 84.26 95.38 84.26 95.38 104.21"/><path class="cls-1" d="M158.61,107.68l1.12-1.37.72-1.68.23-1.85-.11-1.2-.35-1.2-.56-1.13-.74-1-.91-.85L157,96.72l-1.2-.43-1.3-.14h-8.67v20h3.81v-6.69h3.75l4,6.69h4.27l-4.47-7.51Zm-2-3.63-.53,1-.79.69-1,.26h-4.77V99.55h4.61l1,.24.85.67.6,1,.22,1.29Z" transform="translate(-13.84 -11.89)"/><polygon class="cls-1" points="163.46 97.36 153.25 84.26 150.29 84.26 150.29 104.21 154.1 104.21 154.1 91.42 164.18 104.21 167.27 104.21 167.27 84.28 163.46 84.28 163.46 97.36"/><polygon class="cls-1" points="177.6 87.66 183.87 87.66 183.87 104.21 187.65 104.21 187.65 87.66 193.92 87.66 193.92 84.26 177.6 84.26 177.6 87.66"/><rect class="cls-1" x="171.36" y="84.26" width="3.81" height="19.96"/><path class="cls-2" d="M74.84,94.28,74.05,94l-.71-.46-.63-.57-.53-.67-.4-.75-.27-.8-.13-.84V89l.15-.84.3-.79.42-.74.65-.89.7-.88.74-.85.78-.82.83-.77.85-.74L77.7,81l.93-.66,1-.6,1-.57,1-.51,1-.47,1.11-.45,1.13-.44.48-.24a.45.45,0,0,0,.22-.23l2.1-4.48,1.27-2.23a.5.5,0,0,0-.16-.67.54.54,0,0,0-.27-.07.48.48,0,0,0-.41.21l-1.91,2.79-2.31,2.25-2.21,1.5L80,76.7l-1.84-.06-1.3-.54-.48-.58a.54.54,0,0,0-.35-.18h0a.51.51,0,0,0-.34.14l-.77.71-2.57,1.47-2.25.61-2-.18-1.76-.91L65.1,75.86l-.49-1.37.18-1.8.86-2.59,2.42-5.34,2.53-5.11a.49.49,0,0,0-.22-.67l-.13-.07-.5-.45-.44-.71.85-1.55,2.57-2.7,1.3-1,1-.35.77.11.78.51.59.69.18.53-1.22,3.29-.56,1.24L75,60.13l-4,8.79-.85,1.7-.32.7a.38.38,0,0,0,0,.1l-.38,1.73a.53.53,0,0,0,.13.45l.24.25a.49.49,0,0,0,.34.15l.67,0A.59.59,0,0,0,71,74L73,73l.12-.08,2.39-2.13.07-.08.25-.34a.35.35,0,0,0,.08-.16l1.31-4.76,1.36-2.79,1.78-2.52,4.4-4.41L87.13,54l2.4-1.38,2.27-.93,2-.4,1.42.1,1.21.71a.47.47,0,0,0,.25.07A.5.5,0,0,0,97,52l.73-.87L99,50.69l1.18-.14.76.15.39.61.2.5,0,.14-.1.35-.29.4-.13.14a.31.31,0,0,0-.07.09l-5,9.22L93.14,67.7l-2,4.92a.51.51,0,0,0,.46.7.47.47,0,0,0,.28-.09l.87-.58,1.83-1.34,1.78-1.42L98,68.41l1.66-1.55,1.08-1.09a.45.45,0,0,0,.11-.17l3.61-9.68,6.06-14,5.12-10,.16-.2.12-.11.16-.11.16-.09.18-.07.18,0,.19,0H117l.19,0,.18.06h.11l.36,0h.74l.74,0,.74-.06.74-.1.13,0,.13-.06h.13l.1,0,.06,0,0,.06,0,.07v.13l0,.1-.18.18-.49.52-.47.55-.45.57-.42.58-.39.6-.37.62-.35.63L116.63,39l-6.24,12.39L106,61.05a.48.48,0,0,0,.22.64.38.38,0,0,0,.23.06.51.51,0,0,0,.43-.23L109.75,57,113,53.67l2.16-1.73,1.46-.61,2.33.21.74.55.34,1.13-1.35,4.16-3.1,8-1,3.24a.55.55,0,0,0,0,.4l.43.75a.51.51,0,0,0,.44.26.46.46,0,0,0,.23-.06l1.45-.75a.27.27,0,0,0,.12-.09l2.1-2.05L122,64.15a.51.51,0,0,0,.11-.31l0-1.51,1.47-7.07,2.33-7.1,2.77-6L132,36.6l2.93-4,2.51-2.38,2.13-.89,1.18.08,1.09.51.8.9.36,1.32-.22,2.07-1,3.08-3.34,7.25-4.51,7.86-7.66,11.82a.65.65,0,0,0-.08.22l-.11,1.12,0,1.7a.58.58,0,0,0,.06.26l.74,1.29a.46.46,0,0,0,.31.23l1.66.42.12,0a.54.54,0,0,0,.22,0l2.18-1.06a.45.45,0,0,0,.14-.1l2-2.07.08-.1a.47.47,0,0,0,.12-.31v-.5l.58-2.65,1-2.57,1.36-2.36,3.49-4.22,2-1.81,2-1.33,1.85-.84,1.8-.4,2.45.32.61.38.21.42a.5.5,0,0,0,.45.28h.07a.5.5,0,0,0,.42-.41l.11-.62.22-.29,1.26-.41,1.65.27.33.37.18.64-.24,1.29-1.24,2.51-2,5.45L151,64.94a.45.45,0,0,0,0,.11v.6a.37.37,0,0,0,0,.11l.17.72a.53.53,0,0,0,.22.31l.44.27a.53.53,0,0,0,.27.08.51.51,0,0,0,.36-.15L154,65.36l1.22-1.56a.47.47,0,0,0,.06-.09l5-10.51.68-1.22.52-.42a.63.63,0,0,0,.11-.12l.66-1.08.81-.75,1-.5,1.18-.24.53.15.22.55-.36,1.68-.93,2a.51.51,0,0,0,.2.65.59.59,0,0,0,.25.07.52.52,0,0,0,.41-.21l1.66-2.28,1.44-1.38,1.36-.92,2.66-.88,1,.07.85.41.57.61.22.64L175,51.89,174.08,54l-1.23,2.25L172,57.75l-.75,1.43-.37.73-.47,1-.43,1-.42,1-.27.59a.61.61,0,0,0,0,.13L169,65.11a.54.54,0,0,0,.08.35l.28.42a.55.55,0,0,0,.36.22l.8.09a.46.46,0,0,0,.23-.06l1.72-.92,1.87-1.4.09-.09.68-.84a.54.54,0,0,0,.11-.27l0-.38,1-2.92,1.61-3,2-2.71,2.41-2.41,2.73-2.05,2.76-1.44,2.57-.62.75.12.79.59a.53.53,0,0,0,.3.09h.13a.5.5,0,0,0,.33-.29l2-4.73,4.3-8.69,1.31-2.27,1.21-2.36.11-.24,0-.08.17-.22.12-.1.14-.1.16-.08.16-.07.17,0H203l.18,0,.16.05h1.16l.71,0,.7-.06.7-.09a.32.32,0,0,0,.14,0l.12-.06H207l.09,0,.05,0,0,.05,0,.06,0,.07v.07l0,.06,0,.05-.1.08-.5.54L206,30l-.42.54-.4.55-.38.57-.35.59-.33.6-.51,1-2.35,4.72L197,47.51l-3.18,7.41-2,5.3-.59,2.63a.76.76,0,0,0,0,.15l0,.2a.35.35,0,0,0,0,.13l.13.37a.52.52,0,0,0,.32.31l.32.1a.39.39,0,0,0,.15,0,.54.54,0,0,0,.25-.06l1.33-.77.09-.08,1.69-1.65,1.5-1.85.84-1,.44-.18.37.07.21.3.32,1.63,0,1-1,1.8-1.92,2.17-2.25,1.69-2.24.7-1.71-.05-1.2-.49-.76-.9-.36-1.4L188,63l.88-2.5a.5.5,0,0,0-.28-.63.41.41,0,0,0-.19,0,.51.51,0,0,0-.45.28l-1.15,2.41-1.63,2.12-3.48,2.92-1.56.77-1.45.33-1.44-.15-1-.73-.33-.61a.5.5,0,0,0-.37-.26h-.07a.47.47,0,0,0-.35.15l-.83.81-2.06,1.44-2.61.64-1.32-.18L166.85,69l-1.09-1.15-.46-1.44,0-1.8.46-2,1.44-3.71,1.85-3.54.43-.8a.5.5,0,0,0-.15-.64.46.46,0,0,0-.29-.1.52.52,0,0,0-.37.16l-2.3,2.44-4.82,5.94-4.47,6.24L156.29,70l-.52.36-1.47-.19-.26-.09a.47.47,0,0,0-.17,0,.45.45,0,0,0-.3.1L152.4,71l-1,.4-1.81-.17-1.33-.89L147.43,69,147,67.42V66l.29-.83a.5.5,0,0,0-.28-.63.65.65,0,0,0-.19,0,.49.49,0,0,0-.45.28L145,67.6l-2.21,2.5-2.44,1.82-2,.69-1.65-.19-1.49-.93-.49-.63a.58.58,0,0,0-.34-.19h-.06a.51.51,0,0,0-.32.12L132.58,72,130,73.32l-2.53.6-2.17-.2-1.64-1-1.13-1.81-.15-.67V70a.5.5,0,0,0-.33-.45.51.51,0,0,0-.17,0,.48.48,0,0,0-.37.17l-.56.65-1.33,1.09-2.19,1.88-2.74.79-2-.07-1.4-.6-.89-1.11-.43-1.7.16-2.12.82-3L114,58a.52.52,0,0,0-.22-.63.54.54,0,0,0-.25-.06.51.51,0,0,0-.4.2l-5.33,7.16-6.68,9.46-.88.8-1,.38-.72-.11-.31-.15a.49.49,0,0,0-.17-.06l-.44,0h0l.33-1.34a.5.5,0,0,0-.22-.54.45.45,0,0,0-.27-.08.5.5,0,0,0-.31.1l-.58.45-1.63,1.17-1.68,1.11-.09,0-.89.64-.89.61-.91.58-.92.56-.75.43a.47.47,0,0,0-.22.24l-.63,1.51-.83,1.74-.92,1.69-1,1.65-1.07,1.6L83,88.67l-1.23,1.49-1.29,1.42L79.1,93l-.74.67-.83.48-.92.29-.94.07ZM82.5,81.44a.52.52,0,0,0-.29.09l-1.14.78-1.21,1-1.13,1-1,1.13-1,1.21-.87,1.27-.77,1.34a.5.5,0,0,0,.43.75.5.5,0,0,0,.33-.12l1.14-1,1.11-1,1.07-1.08,1-1.12,1-1.16.94-1.2.79-1.09a.51.51,0,0,0-.05-.65A.47.47,0,0,0,82.5,81.44ZM93.19,55.56a.46.46,0,0,0-.23.06l-3.42,1.84L87,59.41l-2,2-2.92,4.13L80.5,68.93a.5.5,0,0,0,0,.13l0,.3-.14.51-.35,2a.48.48,0,0,0,.25.52.53.53,0,0,0,.24.06.5.5,0,0,0,.34-.13l.37-.34,2.11-1.87,3.19-3.31,7.3-8.9.06-.08.2-.39a.5.5,0,0,0,0-.38l-.35-1.16a.49.49,0,0,0-.29-.32A.41.41,0,0,0,93.19,55.56Zm56.69-3.18-.13,0-1.87.51-.13.05-1.93,1.16L143.74,56l-2.1,2.52-2.7,4.76-1.14,3.38a1,1,0,0,0,0,.17v.63a.52.52,0,0,0,.31.45.72.72,0,0,0,.19,0,.5.5,0,0,0,.35-.14l3.52-3.36,3.89-4.74,4.25-6.54a.51.51,0,0,0,0-.57A.49.49,0,0,0,149.88,52.38Zm40.74-1.93a.52.52,0,0,0-.24,0L187.6,52l-.09.06-2.79,2.32-2.46,2.83-1.69,2.89-1.25,3.42-.15.57a.49.49,0,0,0,.49.62.53.53,0,0,0,.24-.06l.88-.49.11-.08,1.37-1.36,4.25-5.38L191,51.24a.5.5,0,0,0,0-.62A.52.52,0,0,0,190.62,50.45Zm-52.68-16a.49.49,0,0,0-.38.17l-.82.95-2.67,4.39-4.79,9.29-2.59,7.87a.5.5,0,0,0,.28.62.43.43,0,0,0,.19,0,.51.51,0,0,0,.45-.27l6.47-12.59,3.48-7,.84-2.76a.66.66,0,0,0,0-.15.5.5,0,0,0-.29-.52A.35.35,0,0,0,137.94,34.43Z" transform="translate(-13.84 -11.89)"/><path d="M206.17,29.07l-.08.08-.45.54-.44.55-.41.57-.39.59L204,32l-.33.61-.51,1-2.36,4.73-4.29,9-3.17,7.39a.17.17,0,0,0,0,.05L191.42,60a.65.65,0,0,0,0,.13l-.58,2.57a1,1,0,0,0,0,.3l0,.2a1.1,1.1,0,0,0,.06.26l.14.37a1,1,0,0,0,.63.61l.31.11a1.1,1.1,0,0,0,.31,0,1,1,0,0,0,.5-.13l1.33-.77a.9.9,0,0,0,.19-.15L196,61.93l.08-.09,1.45-1.79.76-.93.2-.08h0l0,.05.29,1.47,0,.87-.93,1.65L196,65.14l-2.18,1.64-2.07.65-1.54-.05-1-.41-.6-.72L188.29,65l.16-2,.86-2.44a1,1,0,0,0-.57-1.25.84.84,0,0,0-.38-.08,1,1,0,0,0-.9.57l-1.12,2.36-1.58,2-3.39,2.84-1.45.71-1.31.31L177.38,68l-.82-.58-.27-.51a1,1,0,0,0-.74-.52h-.14a1.05,1.05,0,0,0-.71.29l-.76.76-2,1.38-2.43.6-1.13-.15-1.25-.66-1-1-.39-1.25,0-1.62.43-1.92,1.41-3.65,1.84-3.54.44-.8a1,1,0,0,0-.3-1.29,1,1,0,0,0-.58-.19,1,1,0,0,0-.73.32l-2.3,2.44-.05,0-4.8,5.91,0,0-4.45,6.22,0,.06-.77,1.26-.27.19-1.23-.16-.21-.07a1,1,0,0,0-.34-.06,1,1,0,0,0-.61.2l-1.11.85-.78.33-1.56-.14L148.67,70l-.77-1.22-.36-1.45V66.12l.26-.75a1,1,0,0,0-.55-1.25,1.09,1.09,0,0,0-.39-.08,1,1,0,0,0-.9.55l-1.36,2.73-2.14,2.41-2.33,1.74-1.81.63-1.42-.16-1.32-.83-.44-.56a1,1,0,0,0-.68-.37h-.11a1,1,0,0,0-.63.23l-1.42,1.17-2.5,1.27-2.39.57-2-.18L124,72.32l-1-1.64-.11-.51V70a1,1,0,0,0-.67-.9,1,1,0,0,0-.33-.06,1,1,0,0,0-.75.34l-.51.59-1.33,1.11-2.1,1.8-2.56.73-1.82-.06-1.2-.52-.74-.92-.39-1.52.15-1.94.79-2.94,3.09-7.48a1,1,0,0,0-1.73-1l-5.35,7.18-6.64,9.4-.77.7-.8.31-.52-.08-.24-.12a.63.63,0,0,0-.23-.08l.2-.82A1,1,0,0,0,98,72.66a1,1,0,0,0-.54-.16,1,1,0,0,0-.61.21l-.55.42-1.62,1.16L93,75.39l-.08,0-.06,0L92,76.1l-.88.6-.9.58-.91.55-.76.43a1,1,0,0,0-.43.49l-.61,1.46-.82,1.72-.9,1.67-1,1.63-1.06,1.58L82.6,88.34l-1.2,1.47-1.28,1.4-1.34,1.35-.71.65-.74.43-.81.25-.81.07L75,93.81l-.71-.29-.65-.41-.57-.51L72.63,92l-.37-.67L72,90.62l-.13-.76V89.1l.13-.75.26-.72.39-.69.61-.86.69-.87.73-.83.76-.8.8-.76.84-.72.87-.68.91-.64.93-.6,1-.55,1-.5,1-.47,1.11-.45L85,77.77a.31.31,0,0,0,.1,0l.43-.22A1.05,1.05,0,0,0,86,77l2.08-4.45,1.27-2.22A1,1,0,0,0,89,69a.94.94,0,0,0-.53-.16,1,1,0,0,0-.83.44L85.8,72l-2.24,2.19-2.15,1.47-1.47.52-1.65-.06-1.11-.45-.4-.49a1,1,0,0,0-.7-.35H76a1,1,0,0,0-.68.27l-.73.68L72.14,77.2l-2.1.56-1.78-.16-1.6-.82L65.53,75.6l-.42-1.17.17-1.63.83-2.49L68.51,65l2.54-5.12a1,1,0,0,0-.45-1.34l-.07,0-.39-.35-.25-.41.67-1.24L73,53.91,74.27,53l.8-.29.54.08.63.41.48.56.09.28-1.15,3.08-.56,1.25,0,.06-.55,1.49-4,8.76-.38.77-.49,1-.31.69a.68.68,0,0,0-.07.2l-.38,1.73a1,1,0,0,0,.26.9l.24.25a1,1,0,0,0,.67.3l.65,0h.05a1,1,0,0,0,.43-.1l2-1a1,1,0,0,0,.24-.15l2.4-2.14a.93.93,0,0,0,.13-.15l.26-.34a1.26,1.26,0,0,0,.16-.33l1.28-4.67L79,63l1.72-2.45,4.34-4.36,2.34-1.75,2.33-1.35,2.19-.89,1.9-.39,1.23.08,1.11.65a1,1,0,0,0,.5.14,1,1,0,0,0,.77-.36l.65-.76,1.08-.37,1-.13.47.1.23.35.17.43h0l0,.13-.22.29-.12.14a1.33,1.33,0,0,0-.14.19L95.5,61.94l-2.8,5.53,0,.07-2,4.89a1,1,0,0,0,.92,1.39,1,1,0,0,0,.56-.17L93,73l1.85-1.35,1.79-1.43,1.74-1.5,1.68-1.56,1.07-1.07a1.13,1.13,0,0,0,.22-.36L105,56.12,111,42.2l5.07-9.92.11-.14.07-.07.1-.07.11-.06.11-.05.13,0h.37l.18.05a.83.83,0,0,0,.22,0h1.16l.76,0,.76-.07.36,0-.18.18-.48.57-.45.58-.44.6-.4.62-.38.63-.35.63-1.66,3.22-6.26,12.41-4.39,9.6a1,1,0,0,0,.43,1.29.9.9,0,0,0,.47.13,1,1,0,0,0,.85-.47l2.86-4.47,3.19-3.26,2.1-1.69,1.28-.53,2.07.19.49.36.25.83-1.3,4-3.1,8a.19.19,0,0,1,0,.07l-1,3.21a1,1,0,0,0,.09.78l.43.76a1,1,0,0,0,.87.51,1.11,1.11,0,0,0,.46-.11l1.45-.76a.81.81,0,0,0,.24-.17l2.1-2.05,0-.06,2.45-2.8.11-.13a1,1,0,0,0,.23-.61l0-1.43,1.44-7,2.32-7,2.74-6,3.22-5.49L135.23,33l2.44-2.32,1.94-.82,1,.07.92.43.65.74.3,1.11-.2,1.93-.94,3L138,44.29l-4.5,7.84L125.83,64a1,1,0,0,0-.15.44l-.12,1.11v.08l0,1.66a1,1,0,0,0,.13.53l.73,1.28a1,1,0,0,0,.63.48l1.66.42a1,1,0,0,0,.24,0,1.13,1.13,0,0,0,.44-.1l2.17-1.06a.8.8,0,0,0,.28-.2l2-2.07,0-.06.06-.07a1,1,0,0,0,.23-.62v-.4l.56-2.57,1-2.5L137.05,58l3.43-4.18,2-1.76,1.89-1.29,1.8-.83,1.67-.36,2.25.29.39.25.15.29a1,1,0,0,0,.89.56h.15a1,1,0,0,0,.84-.82l.09-.5,0-.07,1-.32,1.36.22.13.15.11.41-.2,1.11-1.21,2.45,0,.1-2,5.4a.56.56,0,0,0,0,.12l-1.26,5.58a.9.9,0,0,0,0,.23v.59a.91.91,0,0,0,0,.23l.16.71a1,1,0,0,0,.44.62l.45.28a1,1,0,0,0,.53.15,1,1,0,0,0,.71-.3l1.59-1.63.07-.08,1.19-1.52a1.18,1.18,0,0,0,.11-.19l5-10.48.63-1.13.44-.36a1.09,1.09,0,0,0,.23-.25l.62-1,.71-.65.89-.44,1-.2.17,0,.07.18-.31,1.48-.9,1.9a1,1,0,0,0,.39,1.29,1.06,1.06,0,0,0,.51.14,1,1,0,0,0,.81-.42l1.61-2.2,1.37-1.33,1.31-.89,2.5-.83.83.06.68.33.43.46.15.42-.3,1.72-.88,2L172.42,56l-.88,1.57L170.79,59l-.38.75-.47,1-.44,1-.41,1-.26.61a.79.79,0,0,0-.08.26L168.54,65a1,1,0,0,0,.16.7l.28.42a1,1,0,0,0,.72.44l.74.08h.11a1.13,1.13,0,0,0,.47-.12l1.72-.92.13-.08,1.8-1.36a1,1,0,0,0,.18-.17l.68-.85a1,1,0,0,0,.22-.54l0-.32,1-2.78,1.57-2.92,2-2.67,2.36-2.35,2.67-2,2.7-1.41,2.41-.58.53.08.7.52a1,1,0,0,0,.59.19,1.15,1.15,0,0,0,.26,0,1,1,0,0,0,.66-.57l2-4.71,4.28-8.66,1.31-2.27,0,0L202,29.77l0-.05.07-.16,0,0,.12-.16.07-.07.09-.06.09-.06.11,0,.1,0h.23l.11,0,.17,0a.78.78,0,0,0,.22,0h1.11l.72,0,.73-.06.2,0m-79,29.19a1,1,0,0,0,.89-.54l6.48-12.6,3.48-7,.06-.15.81-2.68a.4.4,0,0,0,0-.15l0-.08a1,1,0,0,0-1-1.14,1,1,0,0,0-.76.35l-.82.94-.1.14-2.62,4.32,0,.06L128.83,49l-.06.15L126.21,57a1,1,0,0,0,1,1.31m52.5,6.91a1,1,0,0,0,.48-.12l.88-.49a.92.92,0,0,0,.22-.17L182.61,63l.08-.09,4.23-5.35,4.5-6.05a1,1,0,0,0,0-1.24,1,1,0,0,0-.76-.35,1,1,0,0,0-.47.11l-2.78,1.46-.18.11L184.4,54a.57.57,0,0,0-.11.11l-2.41,2.78a.58.58,0,0,0-.11.15l-1.64,2.81a.77.77,0,0,0-.07.16l-1.21,3.34a.19.19,0,0,0,0,.08l-.14.53a1,1,0,0,0,1,1.25m-41.37,3.27a1,1,0,0,0,.7-.28l3.52-3.36.08-.09L146.44,60l.07-.09,4.21-6.5a1,1,0,0,0,0-1.13,1,1,0,0,0-.81-.42,1.09,1.09,0,0,0-.26,0l-1.87.51a.93.93,0,0,0-.25.1l-1.94,1.16-.15.12-2,1.81-.1.1-2.06,2.47a.56.56,0,0,0-.1.15L138.5,63a1.34,1.34,0,0,0-.07.18l-1.1,3.29a1,1,0,0,0-.05.34l0,.63a1,1,0,0,0,.61.9,1.08,1.08,0,0,0,.38.08m-58.37.8-.13.5s0,.05,0,.08l-.34,2a1,1,0,0,0,.5,1,1,1,0,0,0,.48.12,1,1,0,0,0,.67-.26l.37-.33,2.11-1.88s0,0,0-.05l3.17-3.28,0-.06,7.28-8.87a1,1,0,0,0,.11-.17l.21-.39a1,1,0,0,0,.07-.75l-.35-1.17a1,1,0,0,0-.57-.63,1.09,1.09,0,0,0-.39-.08,1,1,0,0,0-.47.12L89.3,57l-.14.09L86.72,59l-.1.09-2,2-.1.12L81.7,65.28a.64.64,0,0,0-.08.14l-1.57,3.29A.87.87,0,0,0,80,69l0,.27M75.51,90.53a1,1,0,0,0,.66-.24l1.16-1,1.13-1,1.08-1.1,1-1.13,1-1.18,1-1.21.78-1.08a1,1,0,0,0-.1-1.29,1,1,0,0,0-.71-.3,1,1,0,0,0-.57.18l-1.15.78-.06,0-1.17.94-.06,0-1.1,1-.06.05-1,1.11,0,.06-.93,1.18,0,.06-.84,1.24a.25.25,0,0,0,0,.07L74.65,89a1,1,0,0,0,.23,1.27,1,1,0,0,0,.63.23M206.9,27.91l-.2,0-.18.08-.68.08-.68.06-.69,0h-.68l-.35,0-.23-.06-.24,0h-.24l-.23,0-.23.06-.23.09-.21.12-.19.14-.17.16-.2.26-.08.13-.1.22-1.19,2.34L198.57,34l-4.31,8.71-2,4.73-.89-.65-1-.16-2.73.66-2.88,1.51L182,50.85l-2.45,2.46-2.08,2.78-1.64,3.06-1,3,0,.45-.68.84-1.8,1.36-1.72.91-.74-.08-.28-.42.21-1.54L170,63l.41-1,.43-.95.46-1,.37-.73.75-1.42.86-1.55,1.24-2.29.95-2.12.37-2.09-.3-.87-.71-.75-1-.49-1.22-.09-2.82.94-1.49,1-1.5,1.45-1.65,2.28,1-2,.4-1.89-.37-.92-.89-.24-1.35.28-1.14.56-.91.84-.69,1.13-.6.48L159.8,53l-5,10.5L153.64,65l-1.58,1.63-.45-.28-.16-.71v-.6l1.26-5.58,2-5.4L156,51.5l.27-1.47-.24-.87-.52-.58-1.95-.32-1.52.49-.39.52-.13.74-.27-.55-.83-.51-2.64-.35-1.93.43-2,.9-2,1.38-2.06,1.86-3.53,4.29-1.4,2.43-1,2.65-.6,2.74v.5l-.06.07-2,2.07L128.9,69l-1.66-.42-.73-1.29,0-1.66.11-1.11,7.68-11.85,4.53-7.91,3.36-7.3,1-3.13.23-2.21L143,30.58l-.94-1.07-1.27-.59-1.39-.1-2.33,1-2.64,2.51-2.95,4-3.27,5.58L125.46,48l-2.34,7.16-1.48,7.15,0,1.52-.11.13L119,66.75l-2.09,2-1.45.75-.43-.76,1-3.21,3.11-8,1.39-4.3-.43-1.45-1-.72-2.59-.24-1.65.68-2.25,1.82-3.3,3.37-2.93,4.56,4.4-9.6,6.24-12.37,1.66-3.2.34-.62.36-.6.38-.58.41-.57.43-.55.45-.53.48-.51.24-.24.12-.25,0-.21,0-.2-.08-.19-.13-.17-.17-.12-.23-.08-.17,0-.21,0-.19.09-.71.09-.72.06-.72,0h-.73l-.36,0-.24-.06-.25,0h-.25l-.25,0-.25.06L116,31l-.22.13-.2.15-.18.17-.21.27-5.13,10-6.07,14-3.6,9.67-1.07,1.07L97.71,68,96,69.5l-1.76,1.4-1.82,1.34-.87.58,2-4.9,2.81-5.53,5-9.22.16-.17.35-.48.16-.55-.08-.35-.24-.58-.5-.78L100.24,50l-1.32.15-1.44.5-.83,1-1.3-.77-1.61-.11-2.13.44-2.33,1L86.84,53.6,84.4,55.42l-4.46,4.47-1.82,2.59-1.39,2.88-1.31,4.75-.25.34-2.4,2.14-2,1-.65,0-.24-.25.38-1.73.31-.69.47-1,.39-.76,4-8.83L76,58.78l.58-1.28,1.28-3.45-.27-.79-.69-.82L76,51.83l-1-.14-1.17.41-1.43,1L69.75,55.9l-1,1.86.64,1,.59.55.2.09-2.55,5.13-2.43,5.39-.89,2.65-.19,2,.56,1.57,1.39,1.46,1.92,1,2.15.2,2.41-.65L75.2,76.6l.81-.76.56.68,1.5.62,2,.07,1.78-.63L84.2,75l2.37-2.31,1.91-2.79-1.29,2.25-2.1,4.49-.43.22-1.14.43-1.13.47-1,.48-1,.52-1,.57-1,.63-.94.66-.91.71-.88.75-.84.8-.8.83-.75.87-.72.9-.67.94-.46.81-.32.88-.16.92v.93l.16.92.3.89.45.81.58.73.7.63.79.49.87.35.91.21,1.07-.09,1-.32.93-.53.79-.73,1.38-1.38,1.31-1.44L83.38,89l1.16-1.56,1.09-1.62,1-1.67.93-1.72.84-1.76L89,79.13l.76-.43.94-.57.92-.59.9-.61.89-.64.07-.05,1.7-1.11L96.86,74l.58-.45-.38,1.55.26.39.67.08.38.19.93.14,1.23-.46,1-.9L108.23,65l5.33-7.16-3.11,7.54-.83,3.09-.17,2.2.48,1.89,1,1.29,1.6.68,2.17.08,2.91-.84,2.27-1.94,1.38-1.16.56-.64v.27l.17.76,1.24,2,1.83,1.17,2.38.21,2.66-.63,2.7-1.38,1.5-1.24.55.7,1.67,1,1.87.22,2.16-.76,2.54-1.89,2.29-2.58L146.86,65l-.32.91v1.53l.43,1.73,1,1.53,1.53,1,2.06.19,1.12-.47,1.22-.93.31.11,1.72.22.76-.53.88-1.44L162,62.69l4.8-5.91,2.3-2.44-.44.81-1.87,3.59-1.46,3.78-.47,2.08,0,1.9.52,1.62,1.22,1.3,1.55.82,1.5.2,2.79-.69,2.2-1.54.83-.82.38.72L177,69l1.66.18,1.59-.37,1.66-.82,3.57-3,1.7-2.2,1.17-2.46-.9,2.56-.18,2.25.42,1.59.9,1.08,1.4.58,1.89.06,2.4-.75,2.39-1.82,2-2.21,1.11-1.95,0-1.23-.35-1.8-.4-.55-.7-.13-.7.29-.92,1.12-1.46,1.8-1.69,1.66-1.32.76-.32-.1-.13-.38,0-.2.57-2.56,2-5.27,3.17-7.4,4.28-8.94,2.35-4.72.5-1,.32-.58.34-.57.37-.56.38-.53.41-.53.43-.5.45-.49.16-.12.12-.16.07-.18,0-.2,0-.2-.08-.18-.12-.15-.16-.12-.22-.07-.16,0ZM127.16,57.26l2.56-7.8,4.78-9.26,2.61-4.32.82-1V35l-.81,2.68-3.48,7-6.47,12.59Zm52.5,6.91.13-.52L181,60.31l1.63-2.81L185,54.73l2.79-2.33L190.62,51l-4.5,6-4.21,5.33-1.37,1.36-.88.49Zm-41.37,3.27v-.63l1.1-3.3L142,58.83l2.06-2.47,2-1.81L148,53.39l1.87-.5-4.21,6.49-3.85,4.7-3.53,3.36ZM80.41,72l.35-2,.14-.54,0-.31,1.57-3.29,2.87-4.07,1.94-2,2.45-1.9,3.41-1.84.35,1.17-.2.38-7.28,8.87-3.17,3.28-2.11,1.88-.37.34Zm-4.9,17.55.75-1.31L77.11,87l.94-1.18,1-1.11,1.1-1,1.18-.94,1.15-.79L81.72,83l-.93,1.18-1,1.15-1,1.11-1.06,1.06-1.1,1-1.14,1Z" transform="translate(-13.84 -11.89)"/><path class="cls-2" d="M285.44,58.8l-.7-.22-.68-.68-.11-.15-.06-.16,0-.18.1-.34.14-.58,2-5.3,5.28-12.27,5.1-11.38.75-1,.42-.48.34-.24.43-.19.64-.29.73-.4.53-.36.39-.12.49.19.3.6-3.48,8L292.19,45.7a.51.51,0,0,0,.13.59.5.5,0,0,0,.33.12.53.53,0,0,0,.27-.08l.95-.62.93-.67.9-.73.86-.77.82-.81.77-.86.73-.9.68-.93.63-1,.58-1,.53-1,.36-.8.54.16.51.11.52.09.52,0,.52,0h.52l.33,0h.13l.13,0,.13.06.1.08.09.1.07.12,0,.13v.13l0,.14,0,.12-.07.12-.13.13-.07.11-.12.21-.76,1.27-.82,1.24-.87,1.2L302,43l-1,1.12-1,1.08-1.07,1-1.11,1-1.15.93-1.2.88a.51.51,0,0,0-.13.66l1.14,2,1.19,1.44.25.28.33.26a.53.53,0,0,0,.15.08l.8.27.88.2.9.11h.9l.9-.09.88-.18.86-.28.82-.36.78-.46.39-.28,0,0h.07l.1,0,0,.11v1l.05.46.09.46.11.45.14.44,0,.09-.46.39-.75.53-.79.47-.83.39-.87.31-.88.24-.91.16-.91.08h-.92l-.92-.07L298,58l-.83-.23-1.6-.9-1.16-1-1-1.07-.94-1.17-.75-1.06-.68-1a.53.53,0,0,0-.42-.23h-.06a.48.48,0,0,0-.41.32l-.39,1.08-1,2.31L288,57l-.35,1.23-.13.35-.23.33L287,59Zm21.14-6.2h0l-.05,0Z" transform="translate(-13.84 -11.89)"/><path d="M300.74,25l.15.06.11.22L297.62,33l-5.88,12.45a1,1,0,0,0,.25,1.18,1,1,0,0,0,.66.25,1,1,0,0,0,.54-.16l.95-.62,0,0,.91-.66,0,0,.88-.71,0,0,.84-.76,0,0,.8-.8,0,0,.76-.84,0,0,.71-.87,0,0,.67-.91,0-.05.62-.94,0-.05.57-1s0,0,0,0l.52-1s0,0,0-.05l.17-.38.13,0h.05l.48.11h.06l.49.08h.06l.49,0h.06l.49,0h1l0,0,0,0,0,0v.17l-.09.09a1,1,0,0,0-.15.21l-.09.17-.76,1.26-.8,1.22-.86,1.18-.91,1.15-.95,1.1-1,1.06-1.05,1-1.1,1-1.13.91-1.21.9a1,1,0,0,0-.27,1.31l1.14,2,.09.14,1.14,1.37,0,.05.24.25.1.09.27.22a1.17,1.17,0,0,0,.31.17l.8.27.11,0,.82.18.11,0,.84.09H302l.85-.09.1,0,.83-.17.11,0,.8-.26.1,0,.78-.35.09,0,.6-.35,0,.33v.07l.05.42a.15.15,0,0,0,0,.07l.07.43s0,0,0,.06l.1.42a.14.14,0,0,1,0,.07l.07.18-.17.14-.71.51-.76.44-.79.38-.82.3-.84.23-.86.15-.88.08h-.87l-.87-.07-.86-.15-.77-.2-1.46-.83-1.13-.94-1-1-.92-1.15-.74-1-.69-1.05a1,1,0,0,0-.83-.45h-.12a1,1,0,0,0-.82.65l-.38,1.05-1,2.36-.72,1.9a.26.26,0,0,0,0,.08L287.22,58l-.11.29-.1.15-.09,0-1.34-.17-.58-.17-.54-.54-.06-.09h0l.1-.33.12-.51,2-5.25,5.28-12.28,5.06-11.29.71-1,.38-.43.23-.16.4-.19.66-.29a.2.2,0,0,1,.08,0l.68-.39.07,0,.44-.29.15-.05m0-1.05-.62.18-.56.38-.69.38-.66.3-.49.23-.4.27-.49.57-.8,1.12L291,38.72,285.68,51l-2,5.35-.14.56-.12.39,0,.34.11.33.21.27.77.77.89.26,1.66.21.62-.22.35-.5.17-.45.34-1.2.72-1.9,1-2.34.39-1.08.69,1L292.1,54l1,1.2,1.06,1.1,1.24,1,1.65.93.93.25.95.16,1,.08h1l1-.08,1-.17.93-.26.9-.33.87-.41.83-.49.79-.56.73-.62-.16-.4-.14-.41-.1-.41-.08-.42-.05-.43,0-.43,0-.43v-.13l0-.13,0-.12-.07-.1-.08-.1-.1-.07-.12-.06-.12,0h-.13l-.13,0-.12,0-.11.07-.34.25-.73.43-.78.35-.8.26-.83.18-.85.08H301l-.84-.1-.83-.18-.8-.27-.27-.22-.24-.25-1.13-1.37-1.15-2,1.21-.89,1.17-.95,1.13-1,1.08-1.05,1-1.09,1-1.14.94-1.18.88-1.22.83-1.25.77-1.29.12-.21.16-.18.12-.21.08-.22,0-.24,0-.24-.07-.23-.12-.21-.15-.18-.19-.14-.22-.11-.23-.05h-.24l-.3,0h-.49l-.49,0-.49-.05-.49-.08-.48-.11-.47-.14-.46-.16-.09.16-.46,1-.52,1-.57,1-.61,1-.67.91-.71.87-.76.84-.8.8-.84.75-.87.71-.92.66-.94.62,5.88-12.45,3.55-8.18,0-.17-.45-.89-.83-.31Z" transform="translate(-13.84 -11.89)"/><path class="cls-2" d="M215.93,64.6l-.36-.64.91-2.84,3.16-6.44,5.64-10.4,7.15-12.2a.5.5,0,0,0,0-.55.49.49,0,0,0-.4-.21l-.11,0-1.13.25-1.14.32-1.12.37-1.1.43-1.08.49-1,.54-1,.59-1,.65-1,.69-.92.74-.45.4-.19.19-.18.23-.15.25-.13.26-.09.28-.06.29,0,.29v.29l0,.29.08.28.11.27.14.26a.53.53,0,0,0,.12.14l.22.17.25.17-.17.07-.51.24-.5.27-.48.3-.47.32-.44.35-.43.37-.4.4-.11.11-.09.08-.1.07-.11.06-.12,0-.11,0-.12,0h-.25l-.12,0-.12,0-.12,0-.11-.05-.53-.34-.44-.42-.37-.49-.28-.55-.18-.58-.08-.61,0-.61.13-.59.24-.57.33-.52.91-1.23,1.49-1.68,1.62-1.56,1.74-1.42,1.86-1.28,2-1.11,2-.95,2.11-.78,2.17-.6,2.21-.42,2.24-.23,2.25-.06,5.25.1,2.25.49,2.09.79,1.76,1,1.21,1.05.78,1.17.33,1.26-.22,2.87-1.19,3-2,2.93-2.47,2.54-2.91,2.2-3.27,1.86L236,49.05l-3,.59h-1.28l-1.08-.28-.89-.54-.78-.87a.52.52,0,0,0-.37-.16h-.07a.48.48,0,0,0-.38.28l-4.19,8.63L222,60.54l-1.15,2.38-.4.79-.52.49-.65.22-1.14.31h-.61l-.36,0Zm14-19.84a.5.5,0,0,0,.44.74l.38,0h.74l.77-.06,2.34-.49,2.53-1.08,2.4-1.44,2-1.63,3-3.47a.15.15,0,0,0,.06-.09l.84-1.54a.47.47,0,0,0,.06-.15l.21-1.2a.42.42,0,0,0,0-.22l-.25-.95a.46.46,0,0,0-.07-.16l-.58-.84a.4.4,0,0,0-.15-.14l-1.95-1.17a.58.58,0,0,0-.17-.06l-2.8-.53h-.1l-2.63,0a.49.49,0,0,0-.41.23.5.5,0,0,0-.05.46l.14.33-.12,1Z" transform="translate(-13.84 -11.89)"/><path d="M237.63,27l5.15.09,2.19.47,2,.75,1.67.95,1.16,1,.7,1,.29,1.1-.21,2.7L249.45,38l-1.89,2.8-2.41,2.5-2.86,2.17-3.21,1.82-3.24,1.3-2.93.59h-1.17l-1-.25-.76-.46-.73-.81a1,1,0,0,0-.74-.33h-.14a1,1,0,0,0-.76.55l-4.18,8.62-1.94,3.87-1.14,2.36-.37.72-.37.35-.52.18-1.09.3h-.62l-.26,0-.92-.13-.14-.23.83-2.57,3.13-6.4,5.64-10.39,7.15-12.22a1,1,0,0,0-.86-1.51.83.83,0,0,0-.22,0l-1.13.25h-.05l-1.11.31-.05,0-1.1.37h-.05l-1.12.45-1,.47-.05,0-1,.53,0,0-1,.58-.05,0-1,.63-.05,0-.93.68,0,0-.94.76-.43.38,0,0-.16.17-.08.09-.14.18a.61.61,0,0,0-.07.1l-.12.2-.06.1-.09.21-.05.12-.07.22,0,.11,0,.23s0,.08,0,.12v.23a.24.24,0,0,0,0,.12v.23a.49.49,0,0,0,0,.12l0,.23a.5.5,0,0,0,0,.12l.07.22a.36.36,0,0,0,0,.11l.09.22a.47.47,0,0,0,.05.1l.11.2.09.13h0l-.47.25,0,0-.46.29a.05.05,0,0,0,0,0l-.44.3,0,0-.42.34,0,0-.41.35s0,0,0,0l-.38.38a.08.08,0,0,0,0,0l0,.05-.06,0-.06,0-.06,0-.06,0-.07,0h-.34l-.07,0-.05,0-.45-.29-.39-.35-.32-.42-.25-.46-.16-.5-.07-.52,0-.52.11-.52.19-.48.3-.49.89-1.2,1.46-1.65,1.59-1.54,1.71-1.39,1.82-1.25,1.92-1.1,2-.93,2.07-.76,2.13-.6,2.17-.41L235.4,27l2.23-.05m-1.33,4.35-.09.77-6.67,12.42a1,1,0,0,0,.05,1,1,1,0,0,0,.83.44h.11l.28,0h.82l.73-.07h.11l2.28-.49.19-.05,2.43-1,.13-.06,2.34-1.41.11-.08,2-1.59.13-.12,3-3.41a.57.57,0,0,0,.12-.18l.84-1.55a1,1,0,0,0,.11-.29l.22-1.2a1,1,0,0,0,0-.43l-.26-1a.73.73,0,0,0-.14-.31l-.57-.84a1,1,0,0,0-.32-.29l-1.95-1.17a.93.93,0,0,0-.33-.12l-2.8-.53-.18,0h0l-2.64,0a1,1,0,0,0-.82.45,1,1,0,0,0-.09.93l.09.21M237.63,26l-2.29.06-2.28.24-2.25.43-2.21.61-2.15.8-2.07,1-2,1.13-1.89,1.3L218.72,33l-1.65,1.58-1.51,1.73-.94,1.26-.37.6-.26.64-.14.69,0,.69.09.69.22.67.32.62.43.55.52.47.58.37.16.08.17,0,.17,0,.18,0h.17l.18,0,.17,0,.17-.06.16-.07.15-.09.14-.1.13-.12.08-.09.39-.37.41-.36.42-.33.44-.3.46-.29.47-.25.49-.24.49-.2.51-.18.3-.17-.22-.06-.32-.09-.25-.11-.24-.13-.23-.15-.22-.17-.11-.2-.09-.22-.07-.22,0-.23v-.23l0-.24,0-.23.07-.22.09-.21.13-.2.14-.19.16-.16.44-.39.9-.72.93-.68,1-.63,1-.59,1-.53,1.05-.47,1.08-.43,1.1-.36,1.11-.31,1.13-.26-7.16,12.23-5.65,10.41L216,61l-1,3,.59,1,1.53.23.37,0h.68l1.23-.34.76-.25.66-.63.44-.87,1.15-2.37,1.93-3.87,4.19-8.62.82.92,1,.61,1.21.32H233l3.12-.63,3.39-1.35,3.33-1.9,3-2.25,2.53-2.61,2-3,1.24-3.11.24-3-.38-1.43-.86-1.29-1.34-1.16-1.83-1-2.16-.81-2.35-.51-5.27-.1Zm-7.21,19,6.76-12.59.14-1.21-.18-.45,2.63,0,2.8.53,2,1.17.58.83.25,1-.21,1.2L244.29,37l-3,3.41-2,1.59L237,43.36l-2.44,1-2.27.48-.73.06h-.79l-.33,0Z" transform="translate(-13.84 -11.89)"/><path class="cls-2" d="M31.47,82.15l-.42-.7.13-1.72.57-1.82,2.33-5.52,2.59-5.57.8-1.31a.48.48,0,0,0,0-.55.51.51,0,0,0-.41-.21h-.1l-.71.15-.71.19-.71.22-.7.25-.69.27-.68.31-.32.16.06-.4,0-.52,0-.52,0-.53,0-.52-.09-.51-.12-.51-.16-.5-.18-.49-.17-.36v-.13l0-.19.06-.18.09-.18.11-.16.13-.14.14-.13.16-.11.18-.08.18-.07L33,60h.19l6.4-1.14A.52.52,0,0,0,40,58.6L41.17,56l.9-1.79,4.39-10,1.35-3,3.31-6.54A.49.49,0,0,0,51,34a.51.51,0,0,0-.36-.15.52.52,0,0,0-.21,0l-1.87.89-1.88.85-1.89.83-1.9.79L41,38l-1.93.74-1.93.7-1.95.68-2,.65-2,.62-1,.3-.19,0h-.33l-.15,0-.16,0-.15-.07-.13-.08-.13-.11L29,41.25l-.09-.13L28.79,41l.16-.52.18-.71.15-.72.12-.73.09-.73.06-.74,0-.73v-.9l1.51.11h2.12l2.11-.13,2.1-.29,2.08-.42,2-.58,2-.71,1.94-.85,1.88-1,1.8-1.11L50.84,29l1.63-1.35,1.76-1.57,1.62-.76H57l.57.26L58,26l.47.37.2.3-.06.61L56.92,31l-3.54,8.28L49.3,48.21l-2.56,6-1.32,2.87a.5.5,0,0,0,.46.71H46l14.13-2.51a.51.51,0,0,0,.38-.3l.39-1,3.88-11.63,6.58-16,.88-1.24,1-.45,2.3-.25.46-.08.29,0,0,0,.28.13.23.08.47.55,0,.2L76.12,28l-.69,1.45L71.16,39,64.39,57.09l-.16.5L62.3,62.85l-.77,1.74L56.71,79.34l-.1.22-.28.12-.21,0a.54.54,0,0,0-.22,0l-.56.27H55a.65.65,0,0,0-.19,0l-.31.13-.12,0L53,80.63l-1.19-.08-.45-.65.06-.94L58,62.17a.53.53,0,0,0-.08-.5.5.5,0,0,0-.39-.18h-.09L42.89,64.11a.49.49,0,0,0-.38.31L37.63,77.29l-.12.3-.7,1.84-1.19,2.49-.59.2-2.28.06-.15,0-.15,0Z" transform="translate(-13.84 -11.89)"/><path d="M76.2,24.82l.19.09.13.05,0,0,.2.22-1.07,2.57L75,29.26,70.7,38.84l0,0L63.91,57l-.14.44-1.92,5.25-.78,1.73a.3.3,0,0,1,0,.1L56.25,79.13l0,0h-.11a1.08,1.08,0,0,0-.43.1l-.46.22H55a1,1,0,0,0-.38.08l-.26.11h-.07l-.14,0-1.27.42L52,80.07l-.21-.31,0-.69,6.58-16.72a1,1,0,0,0-.15-1,1,1,0,0,0-.78-.36h-.17L42.8,63.61a1,1,0,0,0-.76.63L37.18,77.08l-.14.34-.69,1.8-1.09,2.3-.32.11-2.2.05a.93.93,0,0,0-.29,0l-.06,0-.62-.07-.21-.35.11-1.5.55-1.73,2.31-5.48,2.57-5.54.8-1.31a1,1,0,0,0-.85-1.52l-.22,0-.74.17-.74.19-.73.23-.72.25-.71.28-.17.08v0s0,0,0-.06v-.56l0-.49v-.06l0-.49a.15.15,0,0,1,0-.07l-.09-.48a.13.13,0,0,0,0-.06l-.11-.48a.14.14,0,0,1,0-.06l-.15-.47a.14.14,0,0,0,0-.06l-.18-.46a.14.14,0,0,0,0-.06l-.1-.2,0-.08,0-.13.06-.11.07-.11.08-.1.09-.09.11-.07.11-.06.12,0,.13,0,.19,0h.07l6.37-1.13a1,1,0,0,0,.73-.57l1.16-2.62.92-1.8s0,0,0,0l4.37-10,1.34-3,3.32-6.56a1,1,0,0,0-.9-1.46,1,1,0,0,0-.42.1l-1.86.88-1.87.85L44.64,36l-1.9.79-1.9.77-1.92.73L37,39l-1.94.68-1.95.64-2,.62-1,.29-.12,0h-.29l-.1,0-.08,0-.09-.05L29.42,41,29.35,41l0,0,.11-.34.19-.73.15-.74.12-.75L30,37.6l.06-.75,0-.76v-.33l.95.07h2.23l2.08-.13h.06l2.07-.28h.07l2-.42.07,0,2-.57.07,0,2-.7.06,0,1.91-.84.07,0,1.84-1,.06,0,1.77-1.1.06,0,1.69-1.21.06-.05L52.82,28l1.69-1.5L56,25.85h.93l.39.18.36.32,0,0,.38.3.06.09,0,.35-1.64,3.72L52.93,39.1,48.83,48,46.29,54,45,56.85a1,1,0,0,0,.91,1.42h.17l14.13-2.52a1,1,0,0,0,.75-.6l.39-1a.14.14,0,0,0,0-.06L65.2,42.56l6.57-16,.76-1.08.83-.36,2.22-.24h.07l.37-.07h.18m.12-1-.41,0-.44.07-2.37.27-1.22.53-1,1.39L64.26,42.21,60.4,53.81l-.39.95L45.88,57.27l1.32-2.88,2.55-6,4.09-8.9,3.54-8.28,1.7-3.86.08-.85L58.82,26l-.51-.4-.46-.42-.74-.33H55.74L54,25.69l-1.79,1.6-1.61,1.33-1.69,1.22-1.77,1.09-1.85,1-1.91.84-2,.7-2,.57-2,.42-2.07.28-2.08.13H31.1L29,34.68l0,.71v.71l0,.72-.05.71-.09.71-.12.7-.14.7-.18.69-.21.69.09.21.11.19.13.18.16.16.18.14.19.12.21.09.22.06.22,0H30l.23,0,.22-.06,1-.29,2-.62,2-.65,2-.69,1.94-.71,1.94-.74,1.92-.77,1.9-.8,1.9-.82,1.88-.86,1.87-.89-3.32,6.57-1.35,3-4.38,10-.91,1.8L39.53,58.4l-6.36,1.13-.26,0-.25.06-.24.09-.22.12L32,60l-.19.18-.16.19-.14.22-.11.23L31.3,61l-.05.25v.25l.2.45.18.46.14.47.12.48.08.48.06.49,0,.49v.49l-.05.49-.07.48-.11.48-.13.47.63-.35L33,66.6l.65-.29.67-.27L35,65.8l.69-.21.7-.19.7-.15-.83,1.36L33.62,72.2l-2.34,5.56-.6,1.88-.14,1.93.63,1.05,1.33.14.26-.08,2.36-.06.86-.29,1.3-2.72L38,77.78l.13-.32L43,64.6,57.51,62,50.88,78.84,50.8,80l.68,1,1.54.1,1.45-.49.18,0,.35-.15h.45l.67-.32.3,0,.56-.25.2-.44L62,64.79,62.77,63l1.94-5.27.15-.48,6.76-18,4.27-9.57.69-1.47,1.17-2.81.1-.44-.72-.83-.29-.1-.34-.17-.18,0Z" transform="translate(-13.84 -11.89)"/><path class="cls-2" d="M248.18,62.38l-1.43-.84-1-1.23-.49-1.91,0-2.32.56-2.42,1-2.3,1.3-2.11,3.35-3.79,1.92-1.61,1.89-1.2L257,41.9l1.73-.36,2.36.29.58.34.19.37a.51.51,0,0,0,.44.26h.08a.51.51,0,0,0,.41-.41l.1-.54.2-.24,1.21-.36,1.6.24.3.31.16.55-.22,1.13L265,45.72l-1.92,4.91-1.23,5.07a.49.49,0,0,0,0,.12v.54a.49.49,0,0,0,0,.12l.16.64a.53.53,0,0,0,.24.31l.32.19a.59.59,0,0,0,.25.07.5.5,0,0,0,.26-.08l1.29-.77a.73.73,0,0,0,.09-.08L266,55.17l1.1-1.41.06-.09,5-10.66.68-1.23.52-.43a.69.69,0,0,0,.11-.13l.66-1.06.81-.74,1-.5,1.18-.24.52.15.23.54-.36,1.69-.87,1.84a.49.49,0,0,0,.2.64.43.43,0,0,0,.25.07.51.51,0,0,0,.41-.21l.82-1.15L280.56,40l2.11-1.39,2.05-.58,1,.07.81.4.56.65.24.82-.2,1.32-.87,2.11-2.17,4-.69.74-.75.27-.71-.07-.51-.35-.61-1.37.31-1.93a.49.49,0,0,0-.27-.53.59.59,0,0,0-.22,0,.49.49,0,0,0-.36.15l-1.8,1.89-5,6.15-4.63,6.84-.57.75-.46.22L266.28,60l-.22-.08-.18,0a.54.54,0,0,0-.3.1l-1.12.86-2.11.68-1.76-.15-1.27-.8-.84-1.22-.37-1.41v-1.3a.5.5,0,0,0-.36-.48.36.36,0,0,0-.14,0,.52.52,0,0,0-.43.24l-1,1.69L254,60.3l-2.33,1.63-1.91.62ZM260.37,44.5h-.12l-1.8.46-.12,0-1.86,1-2,1.68-2,2.27-2.59,4.28a.36.36,0,0,0,0,.09l-1.06,3a.57.57,0,0,0,0,.18l0,.57a.5.5,0,0,0,.28.43.44.44,0,0,0,.22.05.47.47,0,0,0,.3-.1l3.57-2.64.1-.1,3.51-4.59,4.06-5.85a.5.5,0,0,0-.41-.78Z" transform="translate(-13.84 -11.89)"/><path d="M284.77,38.55l.78.06.63.32.42.49.18.61-.18,1.14-.82,2-2.14,4-.57.61-.52.19-.47-.05-.29-.19-.49-1.11.29-1.78a1,1,0,0,0-.55-1.06,1,1,0,0,0-.44-.1,1,1,0,0,0-.73.31l-1.79,1.89-.05.06-5,6.11-.05.07-4.59,6.78-.5.66-.22.11-1.31-.16-.16-.07a1.13,1.13,0,0,0-.36-.06,1,1,0,0,0-.6.21l-1.06.8L262.3,61l-1.55-.13-1.08-.68-.73-1.06-.33-1.26V56.63a1,1,0,0,0-.73-1,.84.84,0,0,0-.27,0,1,1,0,0,0-.85.47l-1,1.65-2.06,2.17-2.24,1.56-1.73.56-1.38-.15-1.26-.74-.91-1.07-.45-1.74,0-2.2.53-2.28.94-2.23,1.26-2,3.28-3.74,1.87-1.58,1.82-1.15,1.73-.74,1.6-.33,2.17.26.37.22.13.24a1,1,0,0,0,.88.53h.15a1,1,0,0,0,.83-.8l.08-.42,0,0,1-.28,1.31.2.11.1.08.31-.18.94-1.15,2.18a.47.47,0,0,0-.05.1l-1.9,4.85c0,.05,0,.09,0,.13l-1.21,5a.65.65,0,0,0,0,.24v.53a1,1,0,0,0,0,.24l.16.64a1,1,0,0,0,.46.62l.33.19a1,1,0,0,0,.5.14,1,1,0,0,0,.52-.15l1.29-.78a.9.9,0,0,0,.19-.15l1.58-1.59.08-.09,1.06-1.36a.76.76,0,0,0,.12-.19l5-10.63.63-1.14.45-.38a.79.79,0,0,0,.21-.24l.63-1,.7-.65.89-.43,1-.2.17,0,.07.18-.31,1.48-.84,1.78a1,1,0,0,0,.39,1.29,1,1,0,0,0,.51.14,1,1,0,0,0,.81-.42l.78-1.09,2.11-2.19,2-1.32,1.89-.54M249.24,59.06a1,1,0,0,0,.59-.19l3.58-2.65a1.19,1.19,0,0,0,.2-.19l3.53-4.63,4.05-5.83a1,1,0,0,0-.82-1.57,1.07,1.07,0,0,0-.25,0l-1.79.45a.77.77,0,0,0-.25.1l-1.86,1-.15.11-1.92,1.62-.1.1-2,2.21-.11.15L249.42,54a1.51,1.51,0,0,0-.09.18l-1.05,3a.92.92,0,0,0-.05.37v.56a1,1,0,0,0,.56.87,1,1,0,0,0,.44.1m35.43-21.52-2.21.63-2.22,1.47L278,42l-.82,1.15.9-1.89.4-1.89-.37-.92-.89-.24-1.35.27-1.14.56-.91.84-.7,1.12-.59.5-.74,1.33-5.05,10.67-1.06,1.35-1.58,1.6-1.29.78-.32-.19-.16-.64v-.54l1.2-5,1.9-4.85,1.22-2.31.26-1.32-.22-.78-.51-.53-1.87-.29-1.46.44-.38.46-.13.67-.26-.49-.79-.46L258.75,41l-1.86.38-1.9.81-1.94,1.24-2,1.66L247.68,49l-1.34,2.18-1,2.38L244.76,56l0,2.44.53,2.09,1.17,1.38,1.6.94,1.8.19,2.08-.68,2.44-1.7,2.2-2.32,1.07-1.73V58l.41,1.56.94,1.38,1.47.92,2,.17,2.28-.74,1.19-.91.28.1,1.72.22.71-.34.65-.87,4.61-6.81,5-6.11,1.79-1.89-.33,2.07.72,1.65.74.49.94.1,1-.35.81-.88,2.22-4.14.9-2.16L287.8,40l-.3-1-.7-.81-1-.49-1.15-.09ZM249.24,58.06V57.5l1.05-3,2.54-4.21,2-2.21,1.92-1.63,1.86-1,1.8-.45-4.05,5.83-3.51,4.59-3.57,2.64Z" transform="translate(-13.84 -11.89)"/><path class="cls-2" d="M25.42,114.29l-.08,0-.09-.07,0-.07,0,0V114l0-.1,0-.05,1-1.85.85-1.93.73-2,.61-2,.48-2.06.34-2.08.22-2.1.08-2.11-.05-2.11-.18-2.11-.3-2,.14-.45.21-.48.26-.46.3-.43.35-.39.39-.36.43-.32.45-.26.48-.22.5-.17.52-.11.52-.06,19.2-1.23,12.65-.88,4.73-.34-.45.79-.43,1.19L69,88.56v1.26l.2,1.25.4,1.19.61,1.11.78,1,.94.85,1.06.67,1.17.49,1.32.3h.11l1.48-.12.11,0,1.33-.41.1,0,1.21-.7.08-.06.93-.86L82.27,93l1.38-1.51,1.29-1.58,1.22-1.64,1.14-1.69,1.06-1.75.46-.86,34-2.63,23.34-2,46.65-4.26,46.61-4.71L286,65.28l22.17-2.63a.28.28,0,0,0,.13,0l.12,0h.16l0,0,.05,0,.05,0,0,0,0,0,0,0v.11l.21.91.26.85.32.83.38.81.43.78.48.74.54.72.58.67.1.14,0,.1,0,.12v.11l0,.11,0,.1-.06.1-.08.08-.09.07-.1,0-.11,0-22.05,1.22L265,73.15l-24.61,2-24.59,2.41-24.55,2.76-24.51,3.1-24.47,3.45-2.56.4-9.83,1.6-9.8,1.72-9.78,1.85-9.76,2-9.72,2.11-9.7,2.24-9.67,2.36-9.64,2.49-9.6,2.62L42.61,109l-9.53,2.87-7.55,2.38h-.11Zm-.1,0-.05,0,.06,0Zm-.1-.09h0l0,0Z" transform="translate(-13.84 -11.89)"/><path d="M308.33,63.12l.19.81a.64.64,0,0,0,0,.07l.25.82,0,.06.3.8,0,.07.36.77,0,.06.42.75,0,.06.46.72,0,0,.51.69.05.05.54.63,0,.06h0v0h0v0h0v0h-.11l-21.95,1.21-24.66,1.71L240.3,74.71l-24.59,2.41-24.56,2.75L166.63,83l-24.47,3.45-2.57.4-9.83,1.59L120,90.15,110.16,92l-9.76,2-9.73,2.11L81,98.33l-9.67,2.37-9.65,2.49L52,105.81l-9.57,2.74-9.54,2.87-7,2.21.74-1.43,0,0,.84-1.91a.14.14,0,0,0,0-.06l.72-2a.14.14,0,0,0,0-.06l.6-2s0,0,0-.06l.46-2s0,0,0-.06l.34-2v-.06l.22-2.07v-.07L30,97.71v-.07L30,95.56V95.5l-.18-2.07a.13.13,0,0,1,0-.06l-.28-1.83.09-.29.19-.44L30,90.4l.27-.39.31-.36.35-.32.38-.29.41-.24.43-.2.45-.15.46-.1.5-.06,19.21-1.23,12.65-.88,3.79-.27a.69.69,0,0,0,0,.13l-.4,1.11a.94.94,0,0,0,0,.16l-.21,1.16a1,1,0,0,0,0,.17v1.18a1,1,0,0,0,0,.17l.19,1.16a.75.75,0,0,0,0,.16l.38,1.12a1,1,0,0,0,.07.15l.57,1,.09.15.74.92.11.12.88.78.14.11,1,.62.15.08,1.09.44.16,0,1.24.28a.82.82,0,0,0,.22,0h.08l1.45-.12a.78.78,0,0,0,.21,0l1.33-.41a1.21,1.21,0,0,0,.2-.09l1.2-.69a.83.83,0,0,0,.18-.13l1-.89,1.46-1.46,1.39-1.53,1.31-1.6,1.23-1.66,1.15-1.72,1.07-1.77.32-.59,33.73-2.61,23.34-2,46.66-4.25,46.61-4.72L286,65.78l22.16-2.63a.32.32,0,0,0,.14,0m.13-1h-.13l-.13,0-.12,0-22.17,2.62L239.36,70l-46.6,4.71-46.65,4.26-23.34,2L88.51,83.52l-.58,1.08-1,1.73L85.76,88l-1.2,1.62-1.28,1.56-1.36,1.5L80.5,94.1l-.93.86-1.21.69L77,96.07l-1.44.11-1.24-.27-1.09-.45-1-.62-.88-.79-.73-.92-.57-1L69.69,91l-.19-1.16V88.65l.2-1.16.4-1.11.56-1,.44-.62-5.75.42-12.65.87L33.48,87.29l-.57.07-.57.13-.55.18-.53.25-.49.29-.47.35-.42.4-.39.43-.33.47-.28.51-.23.53-.17.56.31,2.06L29,95.59,29,97.67l-.08,2.08-.21,2.07-.34,2.05-.47,2-.59,2-.72,2-.84,1.9-1,1.85-.08.14,0,.15V114l0,.16.05.14.08.14.11.12.13.09.15.06.15,0h.16l.15,0,7.54-2.37,9.53-2.87,9.56-2.74,9.6-2.62,9.63-2.49L81.2,99.3l9.69-2.23L100.61,95l9.75-2,9.78-1.85,9.79-1.72,9.82-1.6,2.56-.39L166.77,84l24.5-3.11,24.55-2.75L240.4,75.7l24.61-2,24.64-1.71,22-1.21.2,0,.19-.07.18-.11.16-.13.12-.16.1-.19.06-.19,0-.21,0-.2-.06-.2-.09-.18-.12-.17-.57-.64-.51-.69-.47-.72-.41-.74-.36-.78-.31-.8-.25-.81-.2-.84v-.08l0-.13-.05-.12-.07-.11-.09-.1-.1-.09-.11-.07-.12-.05-.13,0-.13,0Z" transform="translate(-13.84 -11.89)"/><path class="cls-2" d="M14.34,128.36v-116H324.45v116ZM20.47,18.44a.5.5,0,0,0-.5.5V121.81a.5.5,0,0,0,.5.5H318.33a.5.5,0,0,0,.5-.5V18.94a.5.5,0,0,0-.5-.5Z" transform="translate(-13.84 -11.89)"/><path d="M324,12.89v115H14.84v-115H324M20.47,122.81H318.33a1,1,0,0,0,1-1V18.94a1,1,0,0,0-1-1H20.47a1,1,0,0,0-1,1V121.81a1,1,0,0,0,1,1M325,11.89H13.84v117H325v-117ZM20.47,121.81V18.94H318.33V121.81Z" transform="translate(-13.84 -11.89)"/><polygon class="cls-1" points="271.01 99.31 269.81 100.25 268.44 100.79 267.06 100.95 265.85 100.81 264.74 100.39 263.75 99.74 262.9 98.9 262.24 97.9 261.74 96.75 261.43 95.51 261.32 94.21 261.69 91.83 262.13 90.7 262.75 89.7 263.54 88.84 264.51 88.17 265.67 87.72 267 87.58 268.37 87.73 269.69 88.22 270.88 89.14 271.81 90.55 274.74 88.5 273.52 86.75 271.8 85.35 269.64 84.45 267.12 84.15 264.95 84.36 263.04 85.02 261.38 86.02 260 87.29 258.9 88.8 258.11 90.49 257.62 92.28 257.45 94.1 257.63 95.99 258.17 97.85 259 99.59 260.13 101.14 261.5 102.45 263.12 103.49 264.94 104.16 266.95 104.38 269.38 104.08 271.71 103.18 273.68 101.73 274.44 100.8 275.01 99.75 271.89 97.92 271.01 99.31"/><polygon class="cls-2" points="61.87 36.06 61.44 35.06 61.6 33.48 62.43 31.94 63.67 30.8 65.06 30.34 66.26 30.66 66.57 31.03 66.73 31.61 66.53 33.07 65.66 34.62 64.35 35.84 62.88 36.31 61.87 36.06"/><path d="M78.92,42.75l.9.24.14.17.1.38-.17,1.26-.78,1.39-1.18,1.1-1.22.39-.64-.15-.28-.66.14-1.35.74-1.38,1.11-1,1.14-.38m0-1-1.63.54-1.39,1.27L75,45.22,74.77,47l.58,1.35,1.4.34,1.7-.55,1.45-1.35,1-1.7.22-1.65-.21-.78-.48-.58-1.5-.4Z" transform="translate(-13.84 -11.89)"/><path class="cls-1" d="M308.68,102.47l-.83-1.73-1.1-1.53-1.37-1.29-1.62-1-1.85-.66-2-.22-2,.21-1.84.62-1.65,1L293,99.07l-1.15,1.51L291,102.3l-.55,1.87-.18,2,.17,1.89.52,1.85.83,1.72,1.12,1.52,1.38,1.28,1.63,1,1.85.64,2.05.22,2-.21,1.84-.62,1.64-1,1.4-1.25,1.13-1.5.85-1.71.54-1.86.18-1.95-.17-1.87Zm-3.52,6.09-.46,1.13-.64,1-.82.86-1,.67-1.14.43-1.3.15-1.28-.14-1.14-.43-1-.65-.81-.84-.65-1-.47-1.14-.29-1.23-.09-1.27.37-2.43.46-1.14.63-1,.81-.85,1-.67,1.16-.43,1.3-.14,1.26.13,1.13.41,1,.65.81.83.65,1,.49,1.13.29,1.23.11,1.28Z" transform="translate(-13.84 -11.89)"/><rect class="cls-1" x="298" y="100.17" width="3.04" height="4.05"/></svg>